<svg width="277" height="60" viewBox="0 0 277 60" fill="none" xmlns="http://www.w3.org/2000/svg">
<path fill-rule="evenodd" clip-rule="evenodd" d="M7.08081 50.4132C4.76666 51.0116 2.39199 51.3582 0 51.4468V59.9606C5.49944 59.792 10.3125 58.7263 14.4858 57.0232C11.5827 55.3324 9.0601 53.0838 7.07047 50.4132H7.08081ZM3.42141 9.50364H27.9439C28.4733 11.8981 28.3077 23.8635 28.0146 26.6913C27.646 30.2956 26.544 33.7915 24.7733 36.9731C23.0025 40.1548 20.5989 42.958 17.7038 45.2179C19.9958 47.5134 23.0776 48.8954 26.3521 49.0962C28.2181 47.1976 29.872 45.1101 31.2859 42.869C39.2187 30.3353 36.5577 17.0546 36.8837 1.20403L3.42831 1L3.42141 9.50364Z" fill="#1B1B1B"/>
<path fill-rule="evenodd" clip-rule="evenodd" d="M49.3055 31.6995C50.1648 36.3284 49.5957 41.1093 47.6739 45.4065C45.7521 49.7037 42.5687 53.3135 38.5471 55.7556C34.5255 58.1977 29.8563 59.3564 25.1607 59.0776C20.465 58.7988 15.9655 57.0957 12.2605 54.1949C8.55554 51.2941 5.82079 47.333 4.42002 42.8386C3.01924 38.3441 3.01884 33.5293 4.41886 29.0346C5.81888 24.5399 8.55296 20.5784 12.2574 17.677C15.9619 14.7755 20.4612 13.0717 25.1568 12.7921V21.5416C22.5575 21.7911 20.0744 22.7412 17.9717 24.2906C15.8689 25.8401 14.2251 27.9311 13.2151 30.3412C12.2051 32.7512 11.8666 35.3902 12.2358 37.9775C12.605 40.5647 13.6679 43.0034 15.3116 45.0342C16.9552 47.0649 19.1181 48.6118 21.5702 49.5102C24.0222 50.4086 26.6718 50.6249 29.2369 50.1362C31.802 49.6475 34.1868 48.472 36.1376 46.7348C38.0884 44.9976 39.5323 42.7636 40.3156 40.2705H36.2251V31.6995H49.3106H49.3055Z" fill="#1B1B1B"/>
<path d="M240.365 57.8545H240.421C240.411 58.0605 240.45 58.2661 240.536 58.4542C240.622 58.6424 240.752 58.8079 240.915 58.9371C241.203 59.1818 241.568 59.3201 241.948 59.3284H242.26V59.6055H240.223L240.365 57.8545ZM236.39 44.6291H236.334C236.331 44.4333 236.288 44.24 236.208 44.0607C236.128 43.8815 236.012 43.7199 235.867 43.5857C235.591 43.322 235.221 43.1766 234.837 43.1814H234.469V42.9042H236.509L236.39 44.6291ZM236.39 57.8545L236.503 59.6055H234.469V59.3447H234.8C234.997 59.348 235.193 59.3115 235.375 59.2375C235.558 59.1634 235.723 59.0534 235.86 58.9143C236.146 58.6385 236.314 58.2648 236.327 57.8708L236.39 57.8545ZM240.408 42.9042V59.6055H236.321V42.9042H240.408ZM240.123 42.9042H243.151C243.921 42.902 244.69 42.9807 245.443 43.139C246.143 43.2812 246.814 43.5357 247.43 43.8922C248.012 44.2293 248.495 44.709 248.831 45.2845C249.201 45.9535 249.382 46.708 249.355 47.4692C249.352 48.1345 249.212 48.7922 248.944 49.4028C248.666 50.0502 248.229 50.6194 247.672 51.0592C247.018 51.5552 246.242 51.8724 245.423 51.9787C246.018 52.1762 246.557 52.5117 246.993 52.957C247.43 53.3637 247.815 53.8214 248.139 54.3199C248.232 54.4699 248.374 54.7047 248.563 55.0308C248.752 55.3568 248.99 55.7253 249.282 56.1427C249.573 56.56 249.882 56.9937 250.203 57.4469C250.503 57.8574 250.835 58.2444 251.197 58.6045C251.445 58.8517 251.743 59.0459 252.071 59.1751C252.407 59.2917 252.762 59.348 253.118 59.3414V59.6186H250.753C249.885 59.6332 249.018 59.5589 248.166 59.3968C247.5 59.2683 246.875 58.9867 246.341 58.5751C245.775 58.1113 245.288 57.5608 244.9 56.9448C244.704 56.6619 244.524 56.3691 244.36 56.0677C244.171 55.722 243.985 55.3764 243.797 55.0242C243.608 54.6721 243.442 54.3265 243.3 53.9939C243.183 53.7225 243.084 53.4436 243.005 53.1591C242.831 52.6676 242.546 52.2215 242.17 51.8549C241.94 51.6234 241.633 51.4811 241.306 51.4538V51.1929H242.015C242.415 51.1911 242.812 51.1204 243.187 50.9842C243.61 50.8177 243.978 50.5375 244.247 50.1756C244.621 49.6495 244.864 49.044 244.956 48.4083C245.002 48.2535 245.035 48.0954 245.055 47.9355C245.079 47.7046 245.079 47.4719 245.055 47.241C245.045 46.6773 244.915 46.122 244.674 45.6106C244.486 45.2355 244.209 44.9101 243.866 44.6617C243.572 44.4521 243.242 44.2963 242.892 44.202C242.61 44.1267 242.32 44.0851 242.028 44.0781C241.67 44.0585 241.346 44.0553 241.054 44.0781C240.833 44.0927 240.612 44.0927 240.392 44.0781C240.372 44.0781 240.345 43.9803 240.309 43.7846C240.272 43.589 240.233 43.3999 240.193 43.214C240.153 43.0282 240.153 42.9042 240.153 42.9042H240.123ZM232.713 42.9042V43.1521H232.346C232.009 43.1419 231.681 43.2585 231.428 43.4781C231.303 43.5845 231.204 43.717 231.138 43.8659C231.071 44.0148 231.039 44.1764 231.044 44.3389H230.988V42.8945L232.713 42.9042ZM229.235 42.9042V44.3455H229.179C229.167 44.0223 229.027 43.7164 228.79 43.493C228.552 43.2695 228.236 43.146 227.907 43.1488H227.51V42.901L229.235 42.9042ZM221.571 42.9042V43.1521H221.176C220.842 43.1397 220.516 43.2568 220.269 43.4781C220.148 43.5871 220.053 43.7205 219.991 43.8691C219.928 44.0177 219.898 44.178 219.904 44.3389H219.848V42.8945L221.571 42.9042ZM215.887 42.9042V44.3455H215.83C215.826 44.1834 215.789 44.0239 215.721 43.8761C215.653 43.7283 215.556 43.5952 215.436 43.4846C215.188 43.2642 214.863 43.1473 214.528 43.1586H214.134V42.9108L215.887 42.9042ZM219.904 42.9042V53.3972C219.904 55.1058 220.304 56.4426 221.104 57.4078C221.903 58.373 223.02 58.8556 224.456 58.8556C225.946 58.8556 227.101 58.4002 227.92 57.4893C228.742 56.5829 229.159 55.3177 229.179 53.7037V42.9042H231.044V53.5374C231.044 55.522 230.427 57.0904 229.192 58.2425C227.958 59.3947 226.209 59.9696 223.946 59.9674C221.232 59.9674 219.201 59.3968 217.854 58.2556C216.507 57.1143 215.832 55.5514 215.83 53.5667V42.9042H219.904ZM200.361 44.6552H200.275C200.281 44.4574 200.243 44.2607 200.165 44.0785C200.087 43.8962 199.97 43.7326 199.821 43.5988C199.533 43.3262 199.148 43.1763 198.748 43.1814H198.381V42.9042H200.474L200.361 44.6552ZM200.361 57.8545L200.474 59.6055H198.381V59.3447H198.748C198.947 59.3471 199.145 59.3103 199.329 59.2363C199.513 59.1624 199.681 59.0529 199.821 58.9143C199.967 58.7811 200.082 58.6195 200.16 58.4398C200.239 58.2601 200.278 58.0663 200.275 57.8708L200.361 57.8545ZM211.292 42.4836V43.1521L208.311 42.9042C208.89 42.9014 209.467 42.849 210.037 42.7477C210.46 42.6874 210.878 42.5992 211.289 42.4836H211.292ZM211.292 43.9607V46.8953H211.004V46.6443C211.046 45.9435 210.809 45.2543 210.342 44.7237C210.091 44.4813 209.792 44.292 209.464 44.1675C209.136 44.043 208.785 43.986 208.434 43.9998V43.9444L211.292 43.9607ZM210.01 48.3855V50.8375H207.579V50.7821C207.872 50.7866 208.164 50.731 208.434 50.6187C208.704 50.5064 208.948 50.34 209.149 50.1299C209.538 49.7079 209.746 49.1539 209.729 48.5844V48.3887L210.01 48.3855ZM210.01 51.8451V54.2971H209.729V54.0721C209.745 53.5027 209.537 52.9492 209.149 52.5266C208.949 52.3167 208.705 52.1521 208.434 52.044C208.163 51.936 207.871 51.887 207.579 51.9005V51.8451H210.01ZM212.783 54.4895L211.706 59.612H206.821L207.698 58.5001C208.449 58.5138 209.192 58.3459 209.861 58.011C210.506 57.6787 211.063 57.2031 211.488 56.622C211.961 55.9774 212.316 55.2554 212.534 54.4895H212.783ZM211.282 42.9108V44.0194H204.306V42.9075L211.282 42.9108ZM210.01 50.7821V51.894H204.306V50.7821H210.01ZM210.971 58.4936L211.633 59.6055H204.306V58.4936H210.971ZM204.346 42.9042V59.6055H200.272V42.9042H204.346ZM179.56 44.6715H179.503C179.499 44.4713 179.452 44.2741 179.367 44.0924C179.281 43.9106 179.159 43.7481 179.007 43.6151C178.703 43.3399 178.303 43.1905 177.89 43.1977H177.559V42.9205H179.57L179.56 44.6715ZM179.586 57.8415V59.6218H177.549V59.3447H177.917C178.124 59.3481 178.33 59.3104 178.523 59.2336C178.715 59.1569 178.89 59.0427 179.036 58.898C179.184 58.7632 179.302 58.5997 179.382 58.4179C179.463 58.2361 179.504 58.0398 179.503 57.8415H179.586ZM183.561 42.9205V59.6055H179.503V42.9042L183.561 42.9205ZM187.095 42.9205C188.882 42.8706 190.657 43.2044 192.299 43.8988C193.682 44.4977 194.847 45.4975 195.638 46.7649C196.399 48.143 196.797 49.6865 196.797 51.2549C196.797 52.8233 196.399 54.3668 195.638 55.7449C194.841 57.0075 193.678 58.0058 192.299 58.611C190.66 59.3164 188.884 59.6582 187.095 59.612H180.802L180.745 58.5001H186.741C187.546 58.5318 188.347 58.3741 189.077 58.0401C189.807 57.7061 190.446 57.2054 190.941 56.5796C191.968 55.2992 192.481 53.5265 192.481 51.2614C192.481 48.9963 191.968 47.2192 190.941 45.9302C190.449 45.3005 189.811 44.7961 189.08 44.4591C188.349 44.1222 187.547 43.9624 186.741 43.9933H180.447V42.9108L187.095 42.9205ZM170.126 44.6161C170.123 44.4246 170.079 44.2359 169.999 44.0615C169.919 43.8871 169.803 43.7307 169.659 43.602C169.365 43.3313 168.975 43.186 168.572 43.1977H168.092V42.9205H170.182V44.6161H170.126ZM173.915 44.6161V42.9205H176.039V43.1977H175.562C175.159 43.1919 174.77 43.3364 174.472 43.602C174.323 43.7266 174.204 43.8822 174.123 44.0575C174.042 44.2329 174.002 44.4236 174.005 44.6161H173.915ZM174.001 42.9205V56.7263C174.001 57.3785 174.025 57.9491 174.071 58.4414C174.117 58.9338 174.167 59.3121 174.213 59.5827L174.283 59.9838H174.031L170.126 55.559V42.9042L174.001 42.9205ZM157.145 42.5293L161.047 46.7062V59.6055H157.188V45.6856C157.198 44.9224 157.15 44.1594 157.045 43.4031C156.949 42.8195 156.903 42.526 156.903 42.526L157.145 42.5293ZM161.047 57.9263C161.052 58.1187 161.097 58.308 161.18 58.4825C161.262 58.657 161.381 58.8128 161.527 58.9403C161.82 59.2063 162.205 59.3511 162.604 59.3447H163.057V59.6218H160.99V57.9263H161.047ZM157.257 57.9263V59.6218H155.164V59.3447H155.618C156.025 59.3551 156.42 59.2102 156.721 58.9403C156.867 58.8145 156.984 58.6584 157.063 58.4831C157.141 58.3078 157.179 58.1177 157.175 57.9263H157.257ZM157.145 42.5293L173.746 56.8959L174.031 59.9838L157.469 45.6367L157.145 42.5293ZM148.264 57.786H152.931C153.147 58.2847 153.512 58.7067 153.978 58.9958C154.336 59.2114 154.745 59.3316 155.164 59.3447H155.393V59.6218H147.078V59.3447H147.304C147.471 59.3413 147.635 59.3036 147.786 59.234C147.937 59.1643 148.072 59.0643 148.181 58.9403C148.456 58.6567 148.486 58.2719 148.278 57.7697L148.264 57.786ZM147.84 54.1667V55.2525H140.642V54.1667H147.84ZM145.379 42.1673L145.439 45.5063L139.301 59.5273H137.208L143.832 45.5226C143.869 45.4117 143.955 45.1965 144.087 44.9226C144.22 44.6487 144.359 44.3129 144.511 43.9444L144.935 42.914C145.044 42.6693 145.12 42.4117 145.161 42.1478L145.379 42.1673ZM140.063 57.786C139.854 58.2882 139.884 58.673 140.149 58.9403C140.258 59.0642 140.392 59.1642 140.543 59.2339C140.693 59.3035 140.857 59.3413 141.023 59.3447H141.252V59.6218H135.608V59.3447H135.833C136.253 59.3322 136.663 59.2119 137.022 58.9958C137.484 58.7099 137.84 58.2859 138.039 57.786H140.063ZM145.379 42.1673L153.753 59.4849H148.986L143.723 47.2475L145.379 42.1673ZM124.283 57.8708H124.339C124.328 58.0768 124.368 58.2824 124.453 58.4706C124.539 58.6587 124.669 58.8242 124.832 58.9534C125.123 59.2002 125.492 59.3387 125.876 59.3447H126.207V59.6218H124.153L124.283 57.8708ZM120.308 44.6454H120.251C120.246 44.2586 120.086 43.8894 119.806 43.6182C119.525 43.3471 119.147 43.1959 118.754 43.1977H118.387V42.9205H120.42L120.308 44.6454ZM120.308 57.8708L120.42 59.6218H118.387V59.3447H118.718C118.915 59.3476 119.112 59.311 119.294 59.237C119.477 59.163 119.643 59.0532 119.781 58.9143C120.066 58.6382 120.233 58.2644 120.245 57.8708H120.308ZM124.326 42.9205V59.6055H120.245V42.9042L124.326 42.9205ZM124.041 42.9205H127.068C127.839 42.9183 128.607 42.997 129.361 43.1553C130.06 43.2975 130.732 43.552 131.348 43.9085C131.929 44.2456 132.412 44.7253 132.749 45.3008C133.119 45.9698 133.3 46.7243 133.272 47.4855C133.27 48.1508 133.13 48.8085 132.862 49.4191C132.584 50.0665 132.147 50.6357 131.59 51.0755C130.935 51.5715 130.159 51.8887 129.341 51.9951C129.936 52.1925 130.475 52.528 130.911 52.9733C131.348 53.38 131.732 53.8377 132.057 54.3362C132.15 54.4862 132.292 54.721 132.481 55.0471C132.67 55.3731 132.908 55.7416 133.203 56.159C133.498 56.5763 133.799 57.01 134.12 57.4632C134.421 57.8737 134.753 58.2607 135.114 58.6208C135.363 58.868 135.66 59.0623 135.989 59.1914C136.325 59.3075 136.679 59.3638 137.035 59.3577V59.6349H134.66C133.793 59.6495 132.926 59.5752 132.073 59.4131C131.408 59.2846 130.782 59.003 130.248 58.5914C129.682 58.1276 129.196 57.5771 128.807 56.9611C128.612 56.6788 128.433 56.386 128.271 56.084C128.082 55.7383 127.893 55.3927 127.704 55.0405C127.516 54.6884 127.35 54.3428 127.207 54.0102C127.09 53.7388 126.992 53.4599 126.913 53.1754C126.739 52.6839 126.453 52.2378 126.078 51.8712C125.848 51.6397 125.541 51.4974 125.213 51.4701V51.1929H125.922C126.323 51.1913 126.719 51.1207 127.095 50.9842C127.519 50.8185 127.886 50.5381 128.155 50.1756C128.529 49.6495 128.772 49.044 128.864 48.4083C128.909 48.2535 128.943 48.0954 128.963 47.9355C128.987 47.7046 128.987 47.4719 128.963 47.241C128.953 46.6773 128.823 46.122 128.582 45.6106C128.393 45.2355 128.116 44.9101 127.774 44.6617C127.48 44.4521 127.15 44.2963 126.8 44.202C126.518 44.1267 126.228 44.0851 125.936 44.0781C125.578 44.0585 125.253 44.0553 124.962 44.0781C124.741 44.0927 124.52 44.0927 124.299 44.0781C124.279 44.0781 124.253 43.9803 124.216 43.7846C124.18 43.589 124.14 43.3999 124.104 43.214L124.041 42.9205ZM115.415 51.8125V56.41C114.837 57.0705 114.153 57.6343 113.392 58.0795C112.387 58.683 111.302 59.1461 110.169 59.4555C108.821 59.831 107.425 60.0133 106.025 59.9968C104.073 60.0415 102.14 59.6162 100.394 58.7577C98.8269 57.9677 97.5293 56.7435 96.6607 55.2362C95.7942 53.5711 95.3423 51.727 95.3423 49.856C95.3423 47.9851 95.7942 46.141 96.6607 44.4759C97.5368 42.9717 98.8447 41.7557 100.42 40.9804C102.22 40.1177 104.203 39.6928 106.204 39.7414C107.217 39.7391 108.228 39.8089 109.231 39.9501C110.146 40.0759 111.052 40.2578 111.944 40.4946C112.662 40.6734 113.356 40.935 114.011 41.2739L114.067 46.0345H113.812C113.534 44.9239 113.003 43.8903 112.259 43.0118C111.621 42.2835 110.81 41.7231 109.897 41.3815C108.985 41.054 108.022 40.8895 107.052 40.8956C105.666 40.8495 104.301 41.234 103.15 41.9945C102.053 42.7801 101.221 43.8717 100.761 45.128C99.7046 48.2178 99.6837 51.56 100.702 54.6623C101.116 55.8703 101.878 56.934 102.895 57.7241C103.911 58.4563 105.143 58.8421 106.402 58.823C107.089 58.8236 107.772 58.7134 108.423 58.4969C109.05 58.2978 109.631 57.9811 110.135 57.5643C110.619 57.1679 110.981 56.6477 111.182 56.0611L111.209 51.8027C111.209 50.9679 110.728 50.5473 109.768 50.5473H109.314V50.2701H117.264V50.5473H116.84C115.849 50.5571 115.376 50.9777 115.415 51.8125ZM264.562 30.807H272.707C273.084 31.6779 273.72 32.4158 274.532 32.9232C275.158 33.299 275.873 33.5081 276.606 33.5297H277V34.0156H262.488V33.5297H262.883C263.173 33.5236 263.46 33.4578 263.723 33.3366C263.987 33.2153 264.222 33.0412 264.413 32.8254C264.873 32.3559 264.923 31.6809 264.562 30.807ZM263.82 24.4911V26.3855H251.233V24.4911H263.82ZM259.514 3.54764L259.613 9.37776L248.901 33.8688H245.257L256.808 9.41363C256.874 9.21799 257.023 8.87235 257.252 8.3702C257.48 7.86805 257.729 7.3007 257.994 6.66813L258.736 4.87148C258.925 4.44435 259.057 3.99504 259.13 3.5346L259.514 3.54764ZM250.239 30.807C249.878 31.6809 249.928 32.3559 250.388 32.8254C250.58 33.0412 250.814 33.2153 251.078 33.3366C251.341 33.4578 251.628 33.5236 251.919 33.5297H252.313V34.0156H242.442V33.5297H242.836C243.569 33.5085 244.284 33.2995 244.91 32.9232C245.715 32.4211 246.336 31.68 246.685 30.807H250.239ZM259.514 3.54764L274.125 33.771H265.794L256.616 12.4396L259.514 3.54764ZM212.73 7.92022H212.63C212.623 7.57065 212.542 7.2264 212.393 6.90888C212.245 6.59136 212.031 6.3074 211.766 6.07468C211.236 5.59347 210.539 5.33185 209.818 5.34429H209.225V4.85844H212.73V7.92022ZM212.78 30.9049V34.0156H209.225V33.5297H209.865C210.226 33.5349 210.585 33.4686 210.92 33.3348C211.256 33.2009 211.56 33.0022 211.816 32.7504C212.075 32.5159 212.281 32.2305 212.422 31.9126C212.562 31.5947 212.633 31.2515 212.63 30.9049H212.78ZM219.736 4.85844V34.0156H212.63V4.85844H219.736ZM225.907 4.85844C229.426 4.85844 232.454 5.43341 234.989 6.58335C237.402 7.63119 239.434 9.37685 240.816 11.5885C242.165 13.7775 242.839 16.3937 242.839 19.437C242.839 22.4803 242.165 25.0889 240.816 27.2627C239.429 29.4718 237.4 31.22 234.992 32.2809C232.457 33.4482 229.43 34.0319 225.91 34.0319H214.952L214.853 32.0755H225.317C228.408 32.0755 230.852 30.9581 232.647 28.7235C234.443 26.4888 235.339 23.3944 235.337 19.4403C235.337 15.4883 234.44 12.3863 232.647 10.1342C230.854 7.88219 228.411 6.75615 225.317 6.75615H214.36V4.85844H225.907ZM196.291 7.82567C196.282 7.49166 196.206 7.16265 196.067 6.85801C195.927 6.55337 195.728 6.27928 195.479 6.05185C194.964 5.58054 194.281 5.32758 193.578 5.34755H192.736V4.85844H196.38V7.82567H196.291ZM202.915 7.82567V4.85844H206.619V5.34429H205.771C205.069 5.33542 204.391 5.58687 203.869 6.04859C203.607 6.26628 203.398 6.53883 203.257 6.84631C203.116 7.15378 203.047 7.4884 203.054 7.82567H202.915ZM203.064 4.86169V28.9648C203.064 30.0995 203.105 31.0951 203.187 31.9516C203.269 32.808 203.351 33.4721 203.435 33.9438C203.518 34.4166 203.558 34.6514 203.558 34.6514H203.114L196.3 26.9236V4.85844L203.064 4.86169ZM173.644 4.18348L180.457 11.4711V34.0188H173.684V9.72013C173.704 8.37898 173.621 7.03822 173.435 5.70948C173.273 4.68888 173.19 4.18021 173.19 4.18021L173.644 4.18348ZM180.457 31.0549C180.465 31.3915 180.543 31.7229 180.687 32.0282C180.832 32.3335 181.039 32.6061 181.295 32.8287C181.805 33.2916 182.477 33.5438 183.17 33.533H183.962V34.0188H180.348V31.0549H180.457ZM173.833 31.0549V34.0188H170.189V33.533H170.977C171.687 33.5507 172.376 33.2984 172.902 32.8287C173.158 32.6083 173.361 32.3351 173.498 32.0286C173.635 31.722 173.702 31.3896 173.693 31.0549H173.833ZM173.634 4.18348L202.611 29.255L203.104 34.6514L174.177 9.57666L173.634 4.18348ZM157.049 7.92349H156.9C156.907 7.57401 156.836 7.22721 156.691 6.90808C156.546 6.58895 156.331 6.30544 156.062 6.07794C155.503 5.59206 154.779 5.33125 154.034 5.34755H153.445V4.85844H157.049V7.92349ZM163.909 7.92349V4.85844H167.463L167.413 5.34429H166.87C166.137 5.32813 165.425 5.58958 164.882 6.07468C164.617 6.3074 164.404 6.59136 164.255 6.90888C164.106 7.2264 164.026 7.57065 164.018 7.92022L163.909 7.92349ZM163.909 30.957H164.008C164.021 31.3024 164.104 31.6417 164.252 31.9548C164.401 32.2679 164.612 32.5485 164.873 32.7798C165.409 33.2779 166.123 33.5485 166.86 33.533H167.453V34.0188H163.909V30.957ZM157.049 30.957V34.0188H153.445V33.533H154.087C154.824 33.5453 155.537 33.2752 156.075 32.7798C156.34 32.5539 156.553 32.2739 156.698 31.9592C156.842 31.6444 156.916 31.3025 156.913 30.957H157.049ZM164.005 4.87148V34.0286H156.9V4.85844L164.005 4.87148ZM127.135 7.92022H126.986C127.001 7.57263 126.94 7.22588 126.808 6.90313C126.676 6.58037 126.476 6.28903 126.22 6.04859C125.689 5.57099 124.988 5.31805 124.269 5.34429H123.726V4.85844H127.135V7.92022ZM127.135 30.9538V34.0156H123.726V33.5297H124.269C124.63 33.5414 124.988 33.4806 125.324 33.351C125.659 33.2215 125.964 33.0261 126.22 32.7765C126.468 32.5403 126.663 32.2567 126.795 31.9432C126.926 31.6297 126.991 31.293 126.986 30.9538H127.135ZM133.945 4.86822V34.0254H126.989V4.85844L133.945 4.86822ZM128.811 4.86822H137.005C138.311 4.86975 139.614 4.96785 140.904 5.16169C142.154 5.33347 143.369 5.69306 144.508 6.22792C145.56 6.71819 146.463 7.47285 147.125 8.41586C147.787 9.35494 148.119 10.5864 148.119 12.1102C148.152 13.2133 147.879 14.3044 147.33 15.2666C146.853 16.0803 146.181 16.7671 145.373 17.2671C144.565 17.7672 143.645 18.0655 142.693 18.136C144.057 18.2082 145.387 18.5851 146.582 19.2381C147.717 19.8666 148.675 20.763 149.371 21.8467C150.094 22.9982 150.463 24.331 150.434 25.6845C150.476 27.0385 150.131 28.377 149.44 29.5484C148.767 30.6165 147.833 31.5021 146.724 32.1244C145.49 32.8181 144.146 33.3031 142.749 33.5591C141.196 33.8551 139.618 34.0014 138.036 33.996H133.6V32.0396H135.969C137.082 32.0573 138.185 31.8347 139.202 31.3875C140.197 30.9301 141.018 30.173 141.547 29.2256C142.141 28.2387 142.438 26.9203 142.438 25.2704C142.458 24.2506 142.283 23.2361 141.921 22.2803C141.615 21.4775 141.115 20.7601 140.464 20.1902C139.818 19.6431 139.061 19.2374 138.244 19.0001C137.331 18.7325 136.382 18.6016 135.429 18.6121V18.1751C136.133 18.1743 136.833 18.0642 137.502 17.849C138.136 17.6503 138.717 17.3163 139.205 16.8708C139.712 16.3884 140.101 15.7985 140.341 15.1459C140.641 14.3201 140.784 13.4468 140.762 12.57C140.762 10.3962 140.252 8.88104 139.231 8.02457C138.151 7.1456 136.78 6.68733 135.379 6.73659H129.255C129.223 6.56493 129.182 6.39511 129.132 6.22792C129.049 5.92142 128.976 5.61166 128.91 5.30516L128.811 4.86822ZM110.944 30.8168H119.089C119.463 31.6875 120.097 32.4256 120.907 32.933C121.533 33.3092 122.248 33.5183 122.981 33.5395H123.375V34.0254H108.867V33.5395H109.264C109.555 33.5334 109.841 33.4676 110.105 33.3463C110.368 33.2251 110.603 33.051 110.795 32.8352C111.255 32.3559 111.301 31.6809 110.944 30.807V30.8168ZM110.202 24.5009V26.3953H97.6146V24.5009H110.202ZM105.896 3.55741L105.995 9.38754L95.2827 33.8786H91.6391L103.193 9.42342C103.259 9.22778 103.405 8.88214 103.637 8.37999C103.868 7.87785 104.114 7.31047 104.375 6.6779C104.637 6.04532 104.885 5.44535 105.117 4.88125C105.308 4.45467 105.44 4.00515 105.511 3.54437L105.896 3.55741ZM96.6209 30.8168C96.2566 31.6907 96.3063 32.3657 96.7667 32.8352C96.9583 33.0505 97.1933 33.2243 97.4567 33.3455C97.7202 33.4668 98.0063 33.5328 98.297 33.5395H98.7144V34.0254H88.8269V33.5395H89.2211C89.9541 33.5187 90.669 33.3097 91.2946 32.933C92.1013 32.4321 92.7245 31.6907 93.0734 30.8168H96.6209ZM105.896 3.55741L120.51 33.7808H112.176L102.994 12.4493L105.896 3.55741ZM85.0276 3.55741V0H88.976V0.48584H88.3334C87.9242 0.479424 87.518 0.556019 87.1402 0.710849C86.7623 0.86568 86.4209 1.09543 86.1372 1.3858C85.541 1.95454 85.195 2.73064 85.1733 3.54764L85.0276 3.55741ZM77.9192 3.55741H77.7735C77.7518 2.74042 77.4058 1.96433 76.8096 1.39559C76.5259 1.10522 76.1845 0.875471 75.8067 0.720641C75.4288 0.565811 75.0227 0.489215 74.6135 0.495632H73.9709V0H77.9192V3.55741ZM85.1733 0V32.558C85.1981 34.2311 84.826 35.8869 84.0869 37.3937C83.387 38.8075 82.3887 40.0581 81.1587 41.0619C79.9158 42.0701 78.4795 42.822 76.9354 43.2727C75.3369 43.7436 73.6601 43.9009 72 43.7357V43.2955C73.3395 42.744 74.4999 41.8418 75.3554 40.687C76.2204 39.5204 76.8491 38.2008 77.2071 36.8002C77.5867 35.3639 77.7782 33.8857 77.7768 32.4015V0H85.1733Z" fill="#1B1B1B"/>
</svg>
