<svg width="181" height="40" viewBox="0 0 181 40" fill="none" xmlns="http://www.w3.org/2000/svg">
<path fill-rule="evenodd" clip-rule="evenodd" d="M4.62681 32.9414C3.11468 33.3325 1.563 33.559 0 33.6169V39.18C3.5935 39.0698 6.73851 38.3735 9.46547 37.2606C7.56846 36.1558 5.92014 34.6865 4.62005 32.9414H4.62681ZM2.23565 6.20994H18.2593C18.6053 7.77454 18.4971 15.5931 18.3055 17.4409C18.0647 19.7961 17.3446 22.0803 16.1876 24.1593C15.0305 26.2383 13.4599 28.07 11.5682 29.5467C13.0659 31.0466 15.0796 31.9497 17.2193 32.0809C18.4385 30.8403 19.5193 29.4762 20.4432 28.0119C25.6266 19.8219 23.8879 11.1439 24.1009 0.786734L2.24016 0.653412L2.23565 6.20994Z" fill="white"/>
<path fill-rule="evenodd" clip-rule="evenodd" d="M32.2193 20.7134C32.7808 23.738 32.4089 26.862 31.1532 29.67C29.8974 32.4779 27.8173 34.8366 25.1894 36.4323C22.5616 38.0281 19.5106 38.7852 16.4423 38.603C13.3741 38.4209 10.4339 37.308 8.013 35.4126C5.59207 33.5171 3.80511 30.9288 2.8898 27.992C1.97449 25.0552 1.97423 21.909 2.88904 18.9721C3.80385 16.0351 5.59039 13.4465 8.011 11.5506C10.4316 9.65474 13.3716 8.54141 16.4398 8.35873V14.0759C14.7414 14.239 13.1189 14.8597 11.7448 15.8722C10.3708 16.8847 9.29671 18.251 8.63674 19.8258C7.97678 21.4006 7.75565 23.125 7.99687 24.8156C8.2381 26.5062 8.93266 28.0997 10.0067 29.4266C11.0807 30.7536 12.494 31.7644 14.0962 32.3514C15.6985 32.9384 17.4297 33.0798 19.1059 32.7605C20.782 32.4412 22.3403 31.6731 23.615 30.5379C24.8897 29.4028 25.8332 27.943 26.345 26.3139H23.6722V20.7134H32.2226H32.2193Z" fill="white"/>
<path d="M157.062 37.8039H157.098C157.091 37.9385 157.117 38.0728 157.173 38.1957C157.229 38.3187 157.314 38.4268 157.421 38.5112C157.609 38.6711 157.848 38.7615 158.096 38.7669H158.3V38.948H156.969L157.062 37.8039ZM154.464 29.162H154.427C154.426 29.034 154.398 28.9077 154.345 28.7906C154.293 28.6735 154.217 28.5679 154.122 28.4802C153.942 28.3079 153.7 28.2128 153.449 28.216H153.209V28.0349H154.542L154.464 29.162ZM154.464 37.8039L154.538 38.948H153.209V38.7776H153.425C153.554 38.7797 153.682 38.7559 153.801 38.7075C153.92 38.6591 154.028 38.5873 154.118 38.4963C154.305 38.3161 154.414 38.072 154.423 37.8145L154.464 37.8039ZM157.09 28.0349V38.948H154.419V28.0349H157.09ZM156.904 28.0349H158.882C159.385 28.0334 159.887 28.0848 160.38 28.1883C160.837 28.2812 161.276 28.4475 161.678 28.6805C162.058 28.9007 162.374 29.2142 162.594 29.5903C162.836 30.0274 162.954 30.5204 162.936 31.0178C162.934 31.4525 162.843 31.8823 162.667 32.2813C162.486 32.7043 162.2 33.0762 161.836 33.3636C161.409 33.6877 160.902 33.8949 160.367 33.9645C160.756 34.0935 161.108 34.3127 161.393 34.6036C161.678 34.8694 161.93 35.1685 162.141 35.4943C162.202 35.5923 162.295 35.7457 162.419 35.9587C162.542 36.1718 162.698 36.4126 162.888 36.6853C163.079 36.958 163.28 37.2414 163.49 37.5375C163.686 37.8058 163.903 38.0586 164.139 38.2939C164.302 38.4554 164.496 38.5824 164.711 38.6668C164.93 38.7429 165.162 38.7797 165.395 38.7754V38.9565H163.849C163.282 38.9661 162.716 38.9175 162.159 38.8116C161.724 38.7276 161.315 38.5437 160.966 38.2747C160.596 37.9716 160.278 37.6119 160.025 37.2094C159.897 37.0246 159.779 36.8333 159.672 36.6363C159.548 36.4104 159.427 36.1846 159.304 35.9545C159.181 35.7244 159.072 35.4985 158.979 35.2812C158.903 35.1039 158.838 34.9216 158.787 34.7358C158.673 34.4145 158.486 34.1231 158.241 33.8835C158.091 33.7323 157.89 33.6393 157.676 33.6214V33.451H158.139C158.401 33.4498 158.66 33.4036 158.906 33.3146C159.182 33.2058 159.422 33.0227 159.598 32.7862C159.843 32.4425 160.001 32.0468 160.061 31.6314C160.091 31.5303 160.113 31.427 160.126 31.3225C160.142 31.1716 160.142 31.0195 160.126 30.8686C160.12 30.5003 160.035 30.1375 159.877 29.8033C159.754 29.5582 159.573 29.3456 159.349 29.1833C159.157 29.0463 158.942 28.9445 158.713 28.8829C158.529 28.8337 158.339 28.8065 158.148 28.8019C157.914 28.7891 157.702 28.787 157.512 28.8019C157.368 28.8115 157.223 28.8115 157.079 28.8019C157.066 28.8019 157.049 28.738 157.025 28.6102C157.001 28.4823 156.975 28.3588 156.949 28.2373C156.923 28.1159 156.923 28.0349 156.923 28.0349H156.904ZM152.062 28.0349V28.1968H151.822C151.601 28.1902 151.387 28.2664 151.222 28.4099C151.14 28.4794 151.075 28.566 151.032 28.6633C150.989 28.7606 150.968 28.8661 150.971 28.9724H150.934V28.0285L152.062 28.0349ZM149.789 28.0349V28.9766H149.752C149.744 28.7654 149.653 28.5656 149.498 28.4196C149.343 28.2736 149.136 28.1929 148.921 28.1947H148.662V28.0328L149.789 28.0349ZM144.781 28.0349V28.1968H144.523C144.305 28.1888 144.092 28.2653 143.93 28.4099C143.851 28.4811 143.789 28.5683 143.748 28.6654C143.707 28.7625 143.688 28.8672 143.692 28.9724H143.655V28.0285L144.781 28.0349ZM141.067 28.0349V28.9766H141.03C141.027 28.8708 141.003 28.7665 140.958 28.6699C140.914 28.5734 140.851 28.4864 140.772 28.4141C140.61 28.2701 140.397 28.1937 140.179 28.2011H139.922V28.0392L141.067 28.0349ZM143.692 28.0349V34.8913C143.692 36.0077 143.953 36.8813 144.476 37.512C144.998 38.1426 145.728 38.458 146.666 38.458C147.64 38.458 148.395 38.1604 148.93 37.5652C149.467 36.9729 149.739 36.1462 149.752 35.0916V28.0349H150.971V34.9829C150.971 36.2797 150.568 37.3046 149.761 38.0574C148.954 38.8102 147.812 39.1859 146.333 39.1845C144.559 39.1845 143.232 38.8116 142.352 38.0659C141.472 37.3202 141.031 36.2989 141.03 35.0021V28.0349H143.692ZM130.922 29.1791H130.866C130.869 29.0498 130.845 28.9213 130.794 28.8022C130.742 28.6831 130.666 28.5762 130.569 28.4887C130.381 28.3106 130.129 28.2127 129.868 28.216H129.628V28.0349H130.996L130.922 29.1791ZM130.922 37.8039L130.996 38.948H129.628V38.7776H129.868C129.998 38.7791 130.127 38.7551 130.247 38.7068C130.368 38.6585 130.477 38.5869 130.569 38.4963C130.664 38.4093 130.74 38.3037 130.791 38.1863C130.842 38.0689 130.867 37.9422 130.866 37.8145L130.922 37.8039ZM138.065 27.76V28.1968L136.117 28.0349C136.495 28.0331 136.872 27.9988 137.244 27.9326C137.521 27.8932 137.794 27.8356 138.062 27.76H138.065ZM138.065 28.7252V30.6428H137.876V30.4787C137.904 30.0208 137.748 29.5705 137.443 29.2238C137.279 29.0654 137.084 28.9417 136.87 28.8604C136.655 28.779 136.426 28.7417 136.197 28.7508V28.7146L138.065 28.7252ZM137.227 31.6165V33.2187H135.638V33.1825C135.83 33.1855 136.02 33.1491 136.197 33.0758C136.373 33.0024 136.533 32.8936 136.664 32.7564C136.918 32.4806 137.054 32.1186 137.043 31.7465V31.6186L137.227 31.6165ZM137.227 33.8771V35.4793H137.043V35.3323C137.053 34.9603 136.918 34.5985 136.664 34.3224C136.533 34.1853 136.374 34.0777 136.197 34.0071C136.02 33.9365 135.829 33.9045 135.638 33.9133V33.8771H137.227ZM139.039 35.605L138.335 38.9523H135.143L135.716 38.2257C136.207 38.2347 136.692 38.1249 137.13 37.9061C137.551 37.689 137.915 37.3782 138.192 36.9985C138.502 36.5773 138.733 36.1055 138.876 35.605H139.039ZM138.058 28.0392V28.7636H133.5V28.037L138.058 28.0392ZM137.227 33.1825V33.9091H133.5V33.1825H137.227ZM137.855 38.2215L138.288 38.948H133.5V38.2215H137.855ZM133.526 28.0349V38.948H130.864V28.0349H133.526ZM117.33 29.1897H117.293C117.29 29.0589 117.259 28.93 117.203 28.8112C117.148 28.6925 117.067 28.5863 116.968 28.4994C116.77 28.3196 116.508 28.2219 116.239 28.2267H116.022V28.0456H117.336L117.33 29.1897ZM117.347 37.7953V38.9587H116.016V38.7776H116.256C116.392 38.7798 116.526 38.7552 116.652 38.705C116.778 38.6548 116.892 38.5802 116.988 38.4857C117.084 38.3976 117.161 38.2908 117.214 38.172C117.266 38.0532 117.293 37.9249 117.293 37.7953H117.347ZM119.944 28.0456V38.948H117.293V28.0349L119.944 28.0456ZM122.254 28.0456C123.421 28.0129 124.581 28.2311 125.654 28.6847C126.558 29.0761 127.319 29.7294 127.836 30.5576C128.333 31.458 128.593 32.4666 128.593 33.4915C128.593 34.5163 128.333 35.5249 127.836 36.4253C127.315 37.2504 126.555 37.9027 125.654 38.2982C124.583 38.7591 123.422 38.9824 122.254 38.9523H118.141L118.104 38.2257H122.022C122.548 38.2464 123.071 38.1434 123.548 37.9251C124.026 37.7069 124.443 37.3797 124.766 36.9708C125.437 36.1342 125.773 34.9758 125.773 33.4957C125.773 32.0156 125.437 30.8544 124.766 30.0121C124.445 29.6007 124.028 29.2711 123.55 29.0509C123.073 28.8307 122.549 28.7264 122.022 28.7465H117.91V28.0392L122.254 28.0456ZM111.165 29.1535C111.163 29.0284 111.135 28.905 111.082 28.7911C111.03 28.6771 110.954 28.5749 110.86 28.4908C110.668 28.314 110.413 28.219 110.15 28.2267H109.836V28.0456H111.202V29.1535H111.165ZM113.641 29.1535V28.0456H115.029V28.2267H114.717C114.454 28.2229 114.2 28.3173 114.005 28.4908C113.908 28.5723 113.83 28.6739 113.777 28.7885C113.724 28.9031 113.698 29.0277 113.7 29.1535H113.641ZM113.698 28.0456V37.0667C113.698 37.4928 113.713 37.8656 113.743 38.1874C113.773 38.5091 113.806 38.7563 113.836 38.9331L113.882 39.1952H113.717L111.165 36.3039V28.0349L113.698 28.0456ZM102.683 27.7899L105.233 30.5192V38.948H102.711V29.8523C102.718 29.3536 102.687 28.8551 102.618 28.3609C102.555 27.9795 102.525 27.7877 102.525 27.7877L102.683 27.7899ZM105.233 37.8507C105.236 37.9765 105.266 38.1002 105.32 38.2142C105.374 38.3282 105.451 38.43 105.547 38.5134C105.738 38.6871 105.99 38.7817 106.25 38.7776H106.546V38.9587H105.196V37.8507H105.233ZM102.757 37.8507V38.9587H101.389V38.7776H101.685C101.951 38.7844 102.209 38.6897 102.406 38.5134C102.502 38.4311 102.578 38.3291 102.629 38.2146C102.68 38.1001 102.705 37.9758 102.702 37.8507H102.757ZM102.683 27.7899L113.531 37.1775L113.717 39.1952L102.895 29.8204L102.683 27.7899ZM96.8802 37.7591H99.9299C100.071 38.085 100.309 38.3607 100.614 38.5496C100.848 38.6905 101.115 38.769 101.389 38.7776H101.538V38.9587H96.1054V38.7776H96.2525C96.3616 38.7754 96.4689 38.7507 96.5677 38.7052C96.6665 38.6597 96.7545 38.5944 96.8261 38.5134C97.0057 38.328 97.0252 38.0766 96.8889 37.7485L96.8802 37.7591ZM96.6032 35.3941V36.1036H91.8999V35.3941H96.6032ZM94.995 27.5534L95.034 29.7351L91.0233 38.8969H89.6554L93.9842 29.7458C94.008 29.6734 94.0643 29.5327 94.1509 29.3538C94.2375 29.1748 94.3284 28.9553 94.4279 28.7146L94.705 28.0413C94.7759 27.8814 94.8254 27.7131 94.8522 27.5406L94.995 27.5534ZM91.5211 37.7591C91.3848 38.0872 91.4043 38.3387 91.5774 38.5134C91.6486 38.5943 91.7362 38.6597 91.8346 38.7052C91.9331 38.7507 92.0401 38.7753 92.1488 38.7776H92.2982V38.9587H88.61V38.7776H88.7572C89.0319 38.7694 89.2998 38.6908 89.5342 38.5496C89.8359 38.3628 90.0687 38.0858 90.1987 37.7591H91.5211ZM94.995 27.5534L100.467 38.8692H97.352L93.9128 30.8729L94.995 27.5534ZM81.2099 37.8145H81.2467C81.2398 37.9491 81.2654 38.0834 81.3215 38.2064C81.3776 38.3294 81.4624 38.4375 81.5692 38.5219C81.759 38.6832 82.0003 38.7737 82.251 38.7776H82.4674V38.9587H81.1255L81.2099 37.8145ZM78.6126 29.1727H78.5758C78.5724 28.9199 78.4677 28.6786 78.2844 28.5014C78.1012 28.3243 77.8543 28.2255 77.5975 28.2267H77.3573V28.0456H78.6862L78.6126 29.1727ZM78.6126 37.8145L78.6862 38.9587H77.3573V38.7776H77.5737C77.7028 38.7795 77.831 38.7556 77.9504 38.7072C78.0699 38.6589 78.1781 38.5871 78.2685 38.4963C78.4549 38.3159 78.5634 38.0717 78.5715 37.8145H78.6126ZM81.238 28.0456V38.948H78.5715V28.0349L81.238 28.0456ZM81.0519 28.0456H83.0302C83.5335 28.0441 84.0356 28.0955 84.5279 28.199C84.9853 28.2919 85.424 28.4582 85.8266 28.6911C86.2065 28.9114 86.522 29.2248 86.7421 29.6009C86.9838 30.0381 87.1019 30.531 87.0841 31.0284C87.0823 31.4631 86.991 31.8929 86.8157 32.2919C86.6341 32.7149 86.3485 33.0869 85.9846 33.3743C85.5569 33.6984 85.05 33.9056 84.5149 33.9751C84.904 34.1041 85.2559 34.3234 85.5409 34.6143C85.8264 34.8801 86.0779 35.1792 86.2898 35.5049C86.3504 35.6029 86.4434 35.7563 86.5668 35.9694C86.6902 36.1824 86.846 36.4232 87.0386 36.6959C87.2313 36.9686 87.4282 37.252 87.6382 37.5482C87.8345 37.8164 88.0516 38.0693 88.2875 38.3046C88.45 38.4661 88.6445 38.593 88.8589 38.6774C89.0785 38.7533 89.3101 38.7901 89.5429 38.7861V38.9672H87.991C87.4239 38.9767 86.8574 38.9282 86.3006 38.8223C85.8656 38.7383 85.457 38.5543 85.108 38.2854C84.7382 37.9823 84.4202 37.6226 84.1665 37.2201C84.0388 37.0356 83.9217 36.8443 83.8158 36.6469C83.6925 36.4211 83.5691 36.1952 83.4457 35.9651C83.3224 35.735 83.2141 35.5092 83.1211 35.2918C83.0444 35.1145 82.98 34.9323 82.9284 34.7464C82.8148 34.4252 82.6283 34.1337 82.383 33.8941C82.2327 33.7429 82.0322 33.6499 81.8181 33.6321V33.451H82.2813C82.5428 33.4499 82.8021 33.4038 83.0475 33.3146C83.3243 33.2063 83.5644 33.0231 83.7401 32.7862C83.9845 32.4425 84.1432 32.0468 84.2033 31.6314C84.2331 31.5303 84.2548 31.427 84.2682 31.3225C84.2837 31.1716 84.2837 31.0195 84.2682 30.8686C84.2615 30.5003 84.1767 30.1375 84.0193 29.8033C83.8959 29.5582 83.7149 29.3456 83.4912 29.1833C83.2991 29.0463 83.0836 28.9445 82.8548 28.8829C82.6705 28.8337 82.4809 28.8065 82.2899 28.8019C82.0562 28.7891 81.8441 28.787 81.6536 28.8019C81.5095 28.8115 81.3648 28.8115 81.2207 28.8019C81.2077 28.8019 81.1904 28.738 81.1666 28.6102C81.1428 28.4823 81.1168 28.3588 81.093 28.2373L81.0519 28.0456ZM75.4158 33.8558V36.86C75.0377 37.2915 74.5911 37.6599 74.0933 37.9509C73.437 38.3452 72.7283 38.6478 71.9873 38.85C71.1067 39.0954 70.1948 39.2145 69.2797 39.2037C68.0045 39.2329 66.7414 38.955 65.6002 38.394C64.5764 37.8778 63.7284 37.0779 63.1609 36.093C62.5947 35.0049 62.2994 33.7999 62.2994 32.5774C62.2994 31.3549 62.5947 30.1499 63.1609 29.0619C63.7334 28.079 64.588 27.2844 65.6175 26.7778C66.7932 26.2141 68.0892 25.9365 69.3966 25.9682C70.0584 25.9667 70.7196 26.0123 71.3748 26.1045C71.9726 26.1868 72.5647 26.3056 73.1475 26.4604C73.6165 26.5772 74.0698 26.7481 74.4981 26.9696L74.5349 30.0803H74.3682C74.1865 29.3546 73.8394 28.6792 73.3531 28.1052C72.9367 27.6293 72.4063 27.2631 71.8099 27.0399C71.2143 26.8259 70.5846 26.7184 69.9506 26.7224C69.0452 26.6923 68.1532 26.9435 67.401 27.4404C66.6843 27.9538 66.1406 28.6671 65.8404 29.488C65.1499 31.5069 65.1362 33.6908 65.8015 35.718C66.0723 36.5073 66.57 37.2023 67.2343 37.7186C67.8987 38.1971 68.7034 38.4491 69.5264 38.4367C69.9754 38.4371 70.4214 38.3651 70.8467 38.2236C71.2562 38.0935 71.6362 37.8865 71.9657 37.6142C72.2814 37.3552 72.5181 37.0153 72.6497 36.632L72.667 33.8494C72.667 33.304 72.3531 33.0291 71.7255 33.0291H71.4289V32.848H76.6235V33.0291H76.3465C75.6993 33.0355 75.3898 33.3104 75.4158 33.8558ZM172.873 20.1302H178.195C178.441 20.6993 178.857 21.1815 179.387 21.513C179.797 21.7586 180.263 21.8952 180.742 21.9093H181V22.2268H171.518V21.9093H171.775C171.965 21.9053 172.152 21.8623 172.325 21.7831C172.497 21.7038 172.65 21.5901 172.775 21.4491C173.076 21.1423 173.108 20.7012 172.873 20.1302ZM172.388 16.0032V17.2411H164.163V16.0032H172.388ZM169.574 2.31813L169.639 6.12771L162.639 22.1309H160.258L167.806 6.15114C167.849 6.0233 167.946 5.79745 168.096 5.46934C168.245 5.14122 168.407 4.77049 168.581 4.35715L169.065 3.18317C169.189 2.90407 169.276 2.61047 169.323 2.30961L169.574 2.31813ZM163.514 20.1302C163.278 20.7012 163.31 21.1423 163.611 21.4491C163.736 21.5901 163.89 21.7038 164.062 21.7831C164.234 21.8623 164.421 21.9053 164.611 21.9093H164.869V22.2268H158.419V21.9093H158.676C159.155 21.8955 159.622 21.7588 160.031 21.513C160.557 21.1849 160.963 20.7006 161.191 20.1302H163.514ZM169.574 2.31813L179.121 22.067H173.678L167.68 8.12838L169.574 2.31813ZM139.004 5.17531H138.939C138.934 4.94689 138.881 4.72194 138.784 4.51447C138.687 4.30699 138.547 4.12144 138.374 3.96937C138.028 3.65494 137.572 3.48399 137.101 3.49211H136.714V3.17465H139.004V5.17531ZM139.036 20.1942V22.2268H136.714V21.9093H137.132C137.368 21.9127 137.603 21.8694 137.822 21.7819C138.041 21.6945 138.239 21.5646 138.407 21.4001C138.576 21.2468 138.711 21.0603 138.803 20.8526C138.894 20.6449 138.941 20.4206 138.939 20.1942H139.036ZM143.582 3.17465V22.2268H138.939V3.17465H143.582ZM147.614 3.17465C149.914 3.17465 151.892 3.55035 153.549 4.30175C155.125 4.98645 156.453 6.12711 157.356 7.57227C158.238 9.00264 158.678 10.7121 158.678 12.7007C158.678 14.6893 158.238 16.3938 157.356 17.8142C156.45 19.2577 155.124 20.4001 153.551 21.0933C151.894 21.8561 149.916 22.2374 147.616 22.2374H140.456L140.391 20.9591H147.229C149.249 20.9591 150.845 20.229 152.019 18.7688C153.192 17.3086 153.777 15.2866 153.776 12.7028C153.776 10.1205 153.19 8.09358 152.019 6.62202C150.847 5.15046 149.25 4.41467 147.229 4.41467H140.069V3.17465H147.614ZM128.262 5.11352C128.257 4.89527 128.207 4.68028 128.116 4.48123C128.025 4.28217 127.894 4.10306 127.732 3.95446C127.395 3.64649 126.949 3.4812 126.489 3.49425H125.94V3.17465H128.32V5.11352H128.262ZM132.591 5.11352V3.17465H135.011V3.49211H134.457C133.998 3.48632 133.555 3.65063 133.214 3.95233C133.043 4.09457 132.906 4.27267 132.814 4.47358C132.722 4.67449 132.677 4.89314 132.682 5.11352H132.591ZM132.688 3.17677V18.9264C132.688 19.6679 132.715 20.3184 132.768 20.8781C132.822 21.4377 132.876 21.8717 132.931 22.1799C132.985 22.4888 133.011 22.6423 133.011 22.6423H132.721L128.268 17.5927V3.17465L132.688 3.17677ZM113.464 2.73361L117.916 7.49557V22.2289H113.49V6.35142C113.503 5.47507 113.449 4.59898 113.328 3.73074C113.221 3.06386 113.167 2.73148 113.167 2.73148L113.464 2.73361ZM117.916 20.2922C117.921 20.5121 117.972 20.7287 118.066 20.9282C118.161 21.1277 118.296 21.3058 118.464 21.4512C118.797 21.7537 119.236 21.9185 119.689 21.9115H120.206V22.2289H117.845V20.2922H117.916ZM113.587 20.2922V22.2289H111.206V21.9115H111.722C112.185 21.923 112.636 21.7582 112.979 21.4512C113.146 21.3072 113.279 21.1287 113.369 20.9284C113.458 20.7281 113.502 20.5109 113.496 20.2922H113.587ZM113.457 2.73361L132.392 19.1161L132.714 22.6423L113.812 6.25767L113.457 2.73361ZM102.62 5.17744H102.523C102.528 4.94908 102.481 4.72247 102.387 4.51395C102.292 4.30542 102.151 4.12016 101.975 3.97151C101.61 3.65402 101.137 3.4836 100.651 3.49425H100.265V3.17465H102.62V5.17744ZM107.103 5.17744V3.17465H109.425L109.393 3.49211H109.038C108.559 3.48156 108.094 3.65239 107.739 3.96937C107.566 4.12144 107.426 4.30699 107.329 4.51447C107.232 4.72194 107.179 4.94689 107.174 5.17531L107.103 5.17744ZM107.103 20.2283H107.168C107.176 20.4539 107.23 20.6756 107.327 20.8802C107.424 21.0848 107.562 21.2681 107.733 21.4193C108.083 21.7448 108.549 21.9216 109.031 21.9115H109.419V22.2289H107.103V20.2283ZM102.62 20.2283V22.2289H100.265V21.9115H100.685C101.167 21.9195 101.632 21.743 101.984 21.4193C102.157 21.2717 102.296 21.0887 102.391 20.8831C102.485 20.6774 102.533 20.454 102.531 20.2283H102.62ZM107.165 3.18317V22.2353H102.523V3.17465L107.165 3.18317ZM83.0734 5.17531H82.9761C82.9859 4.94818 82.9464 4.72161 82.8601 4.51071C82.7739 4.29981 82.643 4.10944 82.4761 3.95233C82.1289 3.64025 81.6711 3.47497 81.2012 3.49211H80.8463V3.17465H83.0734V5.17531ZM83.0734 20.2261V22.2268H80.8463V21.9093H81.2012C81.4366 21.9169 81.671 21.8772 81.8902 21.7926C82.1094 21.7079 82.3087 21.5802 82.4761 21.4171C82.6377 21.2628 82.7654 21.0775 82.8514 20.8726C82.9374 20.6678 82.9798 20.4477 82.9761 20.2261H83.0734ZM87.5235 3.18104V22.2332H82.9782V3.17465L87.5235 3.18104ZM84.1686 3.18104H89.5234C90.3762 3.18204 91.2278 3.24614 92.0709 3.3728C92.8874 3.48505 93.6817 3.72001 94.4258 4.06951C95.1135 4.38987 95.7032 4.88298 96.1357 5.49917C96.5685 6.11279 96.785 6.91747 96.785 7.91318C96.8065 8.63394 96.6285 9.34689 96.2698 9.97564C95.958 10.5074 95.5189 10.9561 94.9909 11.2829C94.4628 11.6096 93.8616 11.8045 93.2397 11.8506C94.1312 11.8978 95.0001 12.1441 95.7807 12.5707C96.5223 12.9814 97.1486 13.5671 97.6031 14.2753C98.0756 15.0277 98.3169 15.8986 98.2979 16.783C98.3252 17.6678 98.1002 18.5424 97.6486 19.3078C97.2088 20.0058 96.5987 20.5844 95.8738 20.991C95.0674 21.4443 94.1894 21.7612 93.2765 21.9285C92.2617 22.1219 91.2301 22.2175 90.1965 22.214H87.2984V20.9356H88.8459C89.5733 20.9472 90.2943 20.8018 90.9584 20.5095C91.6085 20.2106 92.1452 19.7159 92.4908 19.0969C92.8789 18.452 93.073 17.5905 93.073 16.5124C93.0864 15.846 92.9718 15.1832 92.7354 14.5586C92.5352 14.034 92.2084 13.5653 91.783 13.1929C91.3611 12.8354 90.8668 12.5703 90.3329 12.4152C89.736 12.2403 89.1158 12.1549 88.4931 12.1617V11.8762C88.9533 11.8756 89.4106 11.8037 89.848 11.6631C90.2622 11.5332 90.642 11.315 90.9606 11.0239C91.2919 10.7087 91.5458 10.3232 91.7029 9.8968C91.899 9.35717 91.9922 8.78654 91.9778 8.2136C91.9778 6.79317 91.6445 5.80314 90.9779 5.24349C90.2717 4.66914 89.3761 4.3697 88.4607 4.40189H84.4587C84.4382 4.28972 84.4115 4.17876 84.3786 4.06951C84.3245 3.86923 84.2769 3.66683 84.2336 3.46655L84.1686 3.18104ZM72.4938 20.1366H77.8161C78.0605 20.7055 78.475 21.1878 79.0044 21.5194C79.4133 21.7652 79.8803 21.9018 80.3593 21.9157H80.6168V22.2332H71.1367V21.9157H71.3965C71.5865 21.9117 71.7736 21.8687 71.9458 21.7895C72.118 21.7102 72.2715 21.5965 72.3964 21.4555C72.6973 21.1423 72.7276 20.7012 72.4938 20.1302V20.1366ZM72.009 16.0096V17.2475H63.7842V16.0096H72.009ZM69.1953 2.32452L69.2602 6.13409L62.2605 22.1373H59.8797L67.4291 6.15754C67.4724 6.0297 67.5676 5.80385 67.7191 5.47574C67.8706 5.14762 68.0308 4.77688 68.2018 4.36354C68.3728 3.95019 68.5351 3.55815 68.6866 3.18955C68.8112 2.91081 68.8978 2.61709 68.9442 2.316L69.1953 2.32452ZM63.1349 20.1366C62.8968 20.7076 62.9293 21.1487 63.2302 21.4555C63.3554 21.5962 63.5089 21.7097 63.6811 21.7889C63.8532 21.8682 64.0401 21.9113 64.2301 21.9157H64.5028V22.2332H58.0421V21.9157H58.2996C58.7786 21.9021 59.2457 21.7655 59.6546 21.5194C60.1817 21.1921 60.5889 20.7076 60.8168 20.1366H63.1349ZM69.1953 2.32452L78.7446 22.0734H73.299L67.2992 8.13476L69.1953 2.32452ZM55.5595 2.32452V0H58.1395V0.317463H57.7196C57.4522 0.31327 57.1868 0.363319 56.9399 0.46449C56.693 0.565661 56.4699 0.715788 56.2846 0.90552C55.895 1.27715 55.6689 1.78428 55.6547 2.31813L55.5595 2.32452ZM50.9147 2.32452H50.8194C50.8053 1.79067 50.5792 1.28355 50.1896 0.911918C50.0042 0.722186 49.7811 0.572059 49.5343 0.470888C49.2874 0.369717 49.022 0.319668 48.7546 0.323861H48.3347V0H50.9147V2.32452ZM55.6547 0V21.2744C55.6709 22.3676 55.4278 23.4495 54.9448 24.4341C54.4875 25.358 53.8352 26.1751 53.0315 26.8311C52.2193 27.4899 51.2808 27.9811 50.2718 28.2757C49.2273 28.5833 48.1316 28.6861 47.0469 28.5782V28.2906C47.9221 27.9302 48.6804 27.3407 49.2394 26.5861C49.8046 25.8238 50.2154 24.9615 50.4493 24.0463C50.6974 23.1078 50.8225 22.1419 50.8216 21.1721V0H55.6547Z" fill="white"/>
</svg>
