<svg width="95" height="95" viewBox="0 0 95 95" fill="none" xmlns="http://www.w3.org/2000/svg">
<path fill-rule="evenodd" clip-rule="evenodd" d="M84.2046 10.7955H10.7955V84.2046H84.2046V10.7955ZM5.40934 0H95V95H0V0H5.40934ZM46.5714 16.0423C45.8366 16.2245 45.1722 16.6203 44.6622 17.1798C44.1523 17.7394 43.8195 18.4374 43.706 19.1859C43.5925 19.9344 43.7033 20.6998 44.0244 21.3854C44.3456 22.0709 44.8627 22.6459 45.5104 23.0378C46.1582 23.4297 46.9075 23.6209 47.6638 23.5872C48.4201 23.5535 49.1495 23.2964 49.7598 22.8485C50.3701 22.4006 50.834 21.7818 51.093 21.0704C51.3519 20.359 51.3942 19.5869 51.2146 18.8514C51.0949 18.3616 50.8798 17.9003 50.5815 17.4938C50.2832 17.0874 49.9076 16.7438 49.4762 16.4828C49.0448 16.2218 48.5662 16.0486 48.0677 15.973C47.5692 15.8974 47.0607 15.9209 46.5714 16.0423V16.0423ZM29.6933 50.0305C34.9668 53.5452 41.1626 55.4207 47.5 55.4207C53.8374 55.4207 60.0332 53.5452 65.3067 50.0305L62.1261 45.2016C61.4296 45.4338 60.0367 46.3856 59.1312 46.85C55.2755 48.7967 50.9949 49.7505 46.6775 49.6249C42.36 49.4992 38.1421 48.298 34.4062 46.1303C33.9237 45.7895 33.4108 45.4942 32.8739 45.248L29.6933 50.0305ZM23.5178 59.8742C26.7011 62.0935 30.1992 63.823 33.8954 65.0049C38.2482 66.4884 42.8088 67.272 47.4071 67.3265C54.0463 67.3065 60.5946 65.7825 66.5604 62.869C68.2851 62.0115 69.9386 61.0178 71.5054 59.8974C71.0411 59.0616 70.4374 58.249 69.9267 57.5758L69.1606 56.4614L68.7427 55.7185C68.6944 55.6242 68.6317 55.5381 68.5569 55.4631L68.2551 55.1381C61.8358 59.5091 54.1941 61.7284 46.4321 61.4761C42.6839 61.3722 38.9734 60.699 35.4277 59.4795C33.7561 58.8991 32.456 58.2955 30.9238 57.599C29.3915 56.9025 27.4181 55.4631 26.6984 55.2774C25.8162 56.74 24.3768 58.2955 23.5178 59.8742V59.8742ZM39.4673 30.1808H42.6246V41.3942C45.8734 42.3109 49.3124 42.3109 52.5611 41.3942V30.1808H55.7185C55.5487 33.5024 55.6341 36.8321 55.9739 40.1405C56.1443 40.4321 56.409 40.657 56.7244 40.778C57.0397 40.899 57.3869 40.9089 57.7086 40.8062C58.0304 40.7034 58.3076 40.4941 58.4944 40.2128C58.6813 39.9314 58.7667 39.5947 58.7366 39.2583C58.8526 37.7725 58.7366 35.7295 58.7366 34.174C58.7366 30.3898 59.2009 27.8825 56.7864 25.9323C54.7666 24.3072 50.5877 24.8644 47.6857 24.8644C44.7837 24.8644 40.5352 24.3536 38.3993 25.8162C36.2634 27.2788 36.4027 30.4594 36.4027 34.0115C36.4027 35.6598 36.4027 37.5171 36.4027 39.1422C36.4027 40.7674 38.2136 41.4638 39.0958 40.2102C39.6762 39.4673 39.4673 31.8988 39.4673 30.1808ZM17.2959 69.9035C21.3919 72.6946 25.863 74.8911 30.5755 76.4272C44.1134 80.8467 58.8457 79.7712 71.5982 73.4323C73.7358 72.3975 75.7788 71.1779 77.7041 69.7874C77.4487 69.2766 74.8485 65.4228 74.477 65.1442C70.8079 67.5415 66.8437 69.4534 62.6833 70.8321C50.5935 74.8626 37.401 73.953 25.9787 68.3016L20.4301 65.121L17.2959 69.9035Z" fill="#231F20"/>
</svg>
