<svg width="78" height="73" viewBox="0 0 78 73" fill="none" xmlns="http://www.w3.org/2000/svg">
<g clip-path="url(#clip0_72_402)">
<path fill-rule="evenodd" clip-rule="evenodd" d="M18.3443 32.2775L20.8384 30.1917L23.9673 33.8831L21.4884 36.0139L18.3443 32.2775ZM22.6976 28.6311L25.1917 26.5603L28.3207 30.2517L25.8266 32.3375L22.6976 28.6311ZM27.0509 24.9998L29.545 22.929L32.674 26.6204L30.1799 28.7062L27.0509 24.9998ZM31.4043 21.3684L33.8832 19.2976L37.0273 22.989L34.5332 25.0748L31.4043 21.3684ZM35.7576 17.737L38.297 15.6662L41.3201 19.3576L38.8412 21.4434L35.7576 17.737ZM40.1109 14.1057L42.5898 12.0049L45.7188 15.6963L43.2398 17.782L40.1109 14.1057ZM44.4491 10.5043L46.9432 8.4035L50.0721 12.0949L47.5931 14.1657L44.4491 10.5043ZM48.878 6.84291L51.2965 4.77213L54.4254 8.46352L51.9011 10.5043L48.878 6.84291ZM53.2313 3.21155L53.8057 2.73136C54.3023 2.311 54.9459 2.10203 55.5968 2.14978C56.2477 2.19754 56.8533 2.49818 57.2823 2.98646V2.98646C57.6942 3.48831 57.8889 4.13181 57.8237 4.77593C57.7586 5.42005 57.4389 6.01225 56.9346 6.42276L56.3602 6.90294L53.2313 3.21155ZM29.2276 49.1138C28.3876 48.981 27.5276 49.157 26.8091 49.609L26.6277 49.7741C26.5436 49.8229 26.4714 49.8895 26.4161 49.9692C26.3081 50.0988 26.2072 50.234 26.1138 50.3743C25.9115 50.7167 25.7973 51.1032 25.7812 51.4997V64.7347C25.827 65.373 26.1141 65.9706 26.5851 66.4075C27.0561 66.8444 27.676 67.0885 28.3207 67.0906V69.6116C28.3177 69.9694 28.3893 70.324 28.531 70.6531C28.6727 70.9822 28.8814 71.2786 29.144 71.5238C29.4066 71.769 29.7174 71.9577 30.057 72.0779C30.3965 72.1981 30.7574 72.2474 31.1171 72.2226H35.8634C36.2812 72.2302 36.6967 72.159 37.0877 72.0125C37.4147 71.8711 37.7092 71.6651 37.9535 71.4071C38.1978 71.1492 38.3866 70.8446 38.5086 70.5119C38.7427 69.367 38.8139 68.1952 38.7202 67.0306H64.5529V69.8067C64.5732 70.1559 64.6768 70.4954 64.8552 70.797C64.9121 70.9402 64.9939 71.0723 65.0971 71.1872L65.2482 71.3522C65.5192 71.6293 65.8472 71.8451 66.2097 71.9849C66.5723 72.1248 66.961 72.1853 67.3493 72.1625H72.141C72.5074 72.182 72.8739 72.1247 73.2165 71.9943C73.5592 71.864 73.8704 71.6635 74.1299 71.4059C74.3893 71.1483 74.5913 70.8394 74.7226 70.4992C74.8539 70.1591 74.9117 69.7953 74.892 69.4315V67.0306C75.5687 67.0309 76.2188 66.7693 76.7042 66.3014C77.1897 65.8335 77.4723 65.1961 77.4919 64.5247V51.6798C77.4865 51.2921 77.3941 50.9106 77.2215 50.5628C77.049 50.215 76.8005 49.9097 76.4943 49.6691C75.6932 49.0838 75.3153 49.1138 73.9851 49.1138L70.962 40.1105C70.4632 38.6099 69.3295 34.8735 68.6039 33.4179C68.0218 31.7958 66.937 30.3985 65.5052 29.4264C64.5294 28.8748 63.4236 28.59 62.3007 28.6011H41.1387C40.0118 28.5958 38.9026 28.8801 37.9191 29.4264C36.4882 30.371 35.3892 31.7347 34.775 33.3279C34.6541 33.553 34.5634 33.8081 34.4576 34.0332L29.6206 48.3336C29.4543 48.5586 29.3334 48.8588 29.2276 49.1138ZM40.912 33.7781H62.3007C62.8146 33.7781 63.1925 34.2883 63.4192 34.6484C64.3815 36.7143 65.1801 38.8516 65.8075 41.0408L68.5283 49.1138H34.8809C34.9173 48.9449 34.9678 48.7793 35.032 48.6187L35.1983 48.0935L35.5157 47.0881L37.4807 41.0858C37.7075 40.4106 37.904 39.7653 38.1458 39.0901C38.551 37.5731 39.108 36.1003 39.8086 34.6934C40.0202 34.3033 40.4434 33.7781 40.9574 33.7781H40.912ZM30.2706 58.1022C30.2694 57.2327 30.522 56.3815 30.9977 55.6514C31.4734 54.9213 32.1519 54.3436 32.9513 53.9881C33.7506 53.6326 34.6366 53.5145 35.5021 53.6481C36.3676 53.7817 37.1756 54.1613 37.8284 54.741C37.9493 54.861 37.9493 54.831 38.0551 54.951C38.4192 55.3229 38.7158 55.7544 38.9319 56.2265C39.3616 57.1133 39.4735 58.1191 39.2493 59.0776C39.0529 59.9099 38.6307 60.673 38.0285 61.284C37.4263 61.8951 36.6671 62.3308 35.8331 62.5439C35.143 62.7013 34.4256 62.6992 33.7364 62.5379C33.0471 62.3766 32.4044 62.0604 31.8577 61.6136C31.767 61.5385 31.7368 61.4785 31.6461 61.4035C31.56 61.3456 31.4835 61.2747 31.4194 61.1934C30.6631 60.3403 30.2537 59.2385 30.2706 58.1022V58.1022ZM63.8576 58.4023C63.7949 57.6071 63.9462 56.8096 64.296 56.0915C64.5515 55.6325 64.8666 55.2087 65.2331 54.831C65.3312 54.7596 65.4223 54.6792 65.5052 54.5909C66.3348 53.9336 67.3612 53.5693 68.4225 53.5555C69.4028 53.5284 70.3654 53.8174 71.1662 54.3793C71.967 54.9411 72.5628 55.7455 72.8642 56.6718C73.1655 57.5982 73.1563 58.5966 72.8379 59.5173C72.5195 60.438 71.909 61.2314 71.098 61.7786C70.3655 62.3084 69.4939 62.616 68.5888 62.664C67.9465 62.6821 67.3076 62.5644 66.7145 62.3188C65.6968 61.9059 64.857 61.1519 64.3413 60.188C64.0602 59.6314 63.8956 59.0239 63.8576 58.4023V58.4023ZM9.68303 39.015C10.5799 39.015 11.4566 39.2791 12.2024 39.7737C12.9481 40.2684 13.5293 40.9714 13.8725 41.794C14.2158 42.6166 14.3056 43.5217 14.1306 44.395C13.9556 45.2682 13.5237 46.0703 12.8895 46.6999C12.2554 47.3295 11.4473 47.7582 10.5677 47.9319C9.68806 48.1056 8.77628 48.0165 7.94767 47.6758C7.11906 47.335 6.41084 46.758 5.91256 46.0177C5.41428 45.2774 5.14832 44.4071 5.14832 43.5167C5.14832 42.3228 5.62609 41.1778 6.47651 40.3336C7.32693 39.4893 8.48035 39.015 9.68303 39.015V39.015ZM9.68303 33.508C12.1166 33.5119 14.4496 34.4723 16.1718 36.1792C17.8941 37.8861 18.8654 40.2005 18.8734 42.6164V72.2226H0.507812V42.5714C0.515783 40.1581 1.48501 37.8459 3.20398 36.1395C4.92294 34.433 7.25206 33.4709 9.68303 33.4629V33.508ZM14.6561 32.7127L52.5511 1.03573C53.4792 0.437209 54.5957 0.196281 55.6903 0.358332C56.7849 0.520382 57.782 1.07422 58.4938 1.91551C59.2056 2.7568 59.5829 3.82745 59.5547 4.92576C59.5264 6.02406 59.0945 7.07419 58.3404 7.8783L20.5512 39.4652C20.1489 37.964 19.4096 36.5727 18.3887 35.3955C17.3677 34.2183 16.0917 33.2857 14.6561 32.6677V32.7127Z" fill="#1B1B1B"/>
</g>
<defs>
<clipPath id="clip0_72_402">
<rect width="76.9841" height="72.2222" fill="white" transform="translate(0.507812)"/>
</clipPath>
</defs>
</svg>
