<svg width="121" height="95" viewBox="0 0 121 95" fill="none" xmlns="http://www.w3.org/2000/svg">
<g clip-path="url(#clip0_72_165)">
<path fill-rule="evenodd" clip-rule="evenodd" d="M0.790313 83.8098C0.790313 84.0419 0.790313 84.0884 0.790313 84.2973L0.604302 84.692C0.813564 86.2475 -1.37206 89.5674 1.83662 93.0498C2.88724 94.0822 4.24968 94.7397 5.71266 94.9202C7.17564 95.1007 8.65739 94.7941 9.92809 94.048C12.5322 92.4229 12.7648 90.4728 13.532 86.735C13.8576 85.2492 14.1831 83.7633 14.4854 82.2775C14.726 80.7496 15.0599 79.2377 15.4852 77.7504H28.0874L26.7388 84.3205C25.8729 86.551 25.8072 89.012 26.5528 91.2853C26.9912 92.2489 27.6578 93.0915 28.495 93.7404C29.3323 94.3894 30.3151 94.8252 31.3587 95.0103C32.4023 95.1954 33.4753 95.1242 34.4852 94.8029C35.4951 94.4815 36.4115 93.9197 37.1554 93.1658C38.4916 91.4697 39.3 89.4194 39.4805 87.269C44.2936 64.8887 48.7811 42.2299 53.6871 19.9425C54.1754 17.7369 54.7334 15.2993 55.1055 13.1866H66.2196C66.7544 16.5297 68.2657 22.8445 69.033 26.559L80.4029 80.4435C80.8912 82.7651 81.333 84.9242 81.8212 87.1993C81.9697 89.3513 82.7366 91.4149 84.0301 93.1426C84.7648 93.9066 85.6741 94.4813 86.6801 94.8173C87.686 95.1532 88.7586 95.2405 89.8058 95.0716C90.853 94.9026 91.8435 94.4825 92.6923 93.8473C93.5411 93.2121 94.2229 92.3808 94.6792 91.4246C95.434 89.1558 95.3848 86.6968 94.5397 84.4598L93.0051 77.7736H105.607C105.91 78.6094 107.142 84.7384 107.444 86.2475C108.165 89.6834 108.281 91.7729 110.467 93.5605C111.552 94.4291 112.887 94.9279 114.277 94.9838C115.667 95.0396 117.038 94.6497 118.19 93.871C119.341 93.0923 120.213 91.9658 120.677 90.6566C121.14 89.3474 121.172 87.9243 120.767 86.5957L106.375 18.1084C105.166 12.3973 104.794 7.54511 100.05 3.66803C94.656 -0.696583 90.7963 0.115979 82.8675 -0.000101548C65.7081 -0.000101548 48.2696 -0.000101548 31.0868 -0.000101548C28.1782 -0.0207317 25.3237 0.784412 22.8558 2.3215C20.7435 3.60245 18.9852 5.39004 17.7405 7.52189C16.4565 10.0045 15.6147 12.6911 15.2526 15.4618C12.7183 26.8376 10.4629 38.2599 8.02148 49.6358C5.90561 59.549 3.88274 69.648 1.72037 79.5612C1.44135 80.8381 1.16233 82.649 0.790313 83.8098ZM94.7025 25.9554H82.077L79.3566 13.0241H90.0755C90.5328 12.9877 90.9899 13.096 91.3822 13.3335C91.7745 13.571 92.082 13.9257 92.2611 14.3474C92.5169 14.9742 94.6792 25.2125 94.7025 25.9554ZM26.3435 25.9554C26.3435 25.1661 28.4594 15.1832 28.7849 14.3474C29.5057 12.5133 32.4586 13.0241 34.5745 13.0009H41.7127L38.969 25.9322L26.3435 25.9554ZM24.4602 34.615H37.2019L34.435 47.5463H21.763L24.4602 34.615ZM96.5393 34.615L99.2365 47.5463H86.8203C86.5645 47.407 86.6575 47.5463 86.5413 47.1749L85.2624 41.1387C84.8207 39.0725 84.2161 36.6812 83.9139 34.615H96.5393ZM19.9727 56.1595H32.5982L29.901 69.0444H17.2058L17.415 68.0229C18.2288 64.0761 19.1124 60.1294 19.9727 56.1595ZM88.5409 56.1595H101.12L103.84 69.114H91.145C90.8428 67.3264 88.3549 56.972 88.5409 56.1595Z" fill="#231F20"/>
</g>
<defs>
<clipPath id="clip0_72_165">
<rect width="121" height="95" fill="white"/>
</clipPath>
</defs>
</svg>
