<svg width="99" height="95" viewBox="0 0 99 95" fill="none" xmlns="http://www.w3.org/2000/svg">
<g clip-path="url(#clip0_72_106)">
<path d="M43.5459 18.3872H13.3174V95.0001H43.5459V18.3872Z" fill="#231F20"/>
<path d="M77.8144 18.3872H47.5859V95.0001H77.8144V18.3872Z" fill="#231F20"/>
<path fill-rule="evenodd" clip-rule="evenodd" d="M3.92242 7.35938H9.74733H81.3843H87.2092V13.0937V89.2423H91.1317V94.9999H87.2092H81.3843V89.2423V13.0937H9.74733V89.2423V94.9999H3.92242H0V89.2423H3.92242V13.0937V7.35938Z" fill="#231F20"/>
<path d="M53.1058 0.510742H50.1934V3.36631H53.1058V0.510742Z" fill="#231F20"/>
<path d="M52.5647 1.04472H50.7092V2.85557H52.5647V1.04472ZM50.216 0H53.6452V3.90029H49.6758V0H50.216Z" fill="#231F20"/>
<path d="M64.7088 1.04472H62.8533V2.85557H64.7088V1.04472ZM62.3601 0H65.7658V3.90029H61.8199V0H62.3601ZM28.1857 1.04472H26.3302V2.85557H28.1857V1.04472ZM25.8369 0H29.2661V3.90029H25.3672V0H25.8369ZM34.2925 1.04472H32.4369V2.85557H34.2925V1.04472ZM31.9437 0H35.3729V3.90029H31.4505V0H31.9437ZM40.3992 1.04472H38.5437V2.85557H40.3992V1.04472ZM38.0505 0H41.4562V3.90029H37.5807V0H38.0505ZM46.4825 1.04472H44.627V2.85557H46.459L46.4825 1.04472ZM44.1337 0H47.5629V3.90029H43.5935V0H44.1337ZM58.7195 1.04472H56.864V2.85557H58.7195V1.04472ZM56.3707 0H59.7764V3.90029H55.7366V0H56.3707Z" fill="#231F20"/>
<path fill-rule="evenodd" clip-rule="evenodd" d="M91.0146 52.0736H99.0004L95.0075 59.8509L91.0146 52.0736ZM91.0146 50.2627H99.0004L95.0075 42.4854L91.0146 50.2627Z" fill="#231F20"/>
</g>
<defs>
<clipPath id="clip0_72_106">
<rect width="99" height="95" fill="white"/>
</clipPath>
</defs>
</svg>
