<svg width="95" height="95" viewBox="0 0 95 95" fill="none" xmlns="http://www.w3.org/2000/svg">
<path fill-rule="evenodd" clip-rule="evenodd" d="M31.0398 30.1808C29.3432 30.4369 27.7609 31.1913 26.4937 32.3482C25.2265 33.505 24.3315 35.0123 23.9224 36.6787C23.5133 38.345 23.6084 40.0954 24.1957 41.7076C24.7831 43.3198 25.8361 44.7212 27.2213 45.7339C28.6064 46.7466 30.2612 47.325 31.9756 47.3957C33.69 47.4663 35.3867 47.0261 36.8505 46.1308C38.3143 45.2355 39.4791 43.9256 40.1971 42.3672C40.9152 40.8088 41.154 39.0722 40.8834 37.3778C40.529 35.1198 39.2939 33.0943 37.4488 31.7453C35.6037 30.3963 33.299 29.8337 31.0398 30.1808V30.1808ZM17.1102 44.9695C16.9876 50.7228 17.2513 56.4778 17.8996 62.1958C18.5728 67.2104 20.2212 73.1073 26.3502 70.7625C30.5291 69.1606 32.2935 63.9834 34.5919 60.9885C35.1369 59.9623 36.0305 59.1645 37.1117 58.7389C38.1928 58.3132 39.3904 58.2877 40.4888 58.6669C42.7251 59.6835 45.121 60.3041 47.5697 60.501C53.9541 60.501 55.9506 55.1149 60.3385 61.4064C61.5921 63.2173 62.6601 65.1442 63.8441 66.8622C65.0121 68.6862 66.7147 70.1051 68.7195 70.925C69.2585 71.2174 69.8501 71.4001 70.4601 71.4626C71.0701 71.5251 71.6865 71.4661 72.2736 71.2891C72.8607 71.1121 73.4069 70.8206 73.8808 70.4314C74.3546 70.0421 74.7466 69.5629 75.0342 69.0213C78.238 63.728 77.7737 46.85 77.7737 38.9797C77.8469 36.9675 77.5083 34.9616 76.7789 33.0848C76.0494 31.2081 74.9444 29.5001 73.5315 28.0655C72.1186 26.6309 70.4277 25.4999 68.5623 24.7419C66.6969 23.9838 64.6964 23.6147 62.6833 23.6571C60.1777 23.5725 57.6898 24.1067 55.4399 25.2126C53.5925 26.4462 51.5409 27.3423 49.3805 27.8592C43.0425 28.8343 41.2549 25.0965 36.1706 24.0286C33.9012 23.4128 31.5194 23.3359 29.215 23.804C26.9106 24.2721 24.7475 25.2722 22.8983 26.7245C21.049 28.1769 19.5647 30.0413 18.5638 32.1691C17.5629 34.2968 17.0731 36.6291 17.1334 38.9797L17.1102 44.9695ZM61.7314 28.0218C67.1872 26.7449 69.1141 35.1955 63.5887 36.4492C63.0069 36.676 62.3828 36.774 61.7595 36.7363C61.1361 36.6986 60.5284 36.5262 59.9781 36.2309C59.4279 35.9356 58.9482 35.5245 58.5722 35.0259C58.1962 34.5273 57.9329 33.9531 57.8003 33.3428C57.6677 32.7326 57.669 32.1008 57.8042 31.4912C57.9394 30.8815 58.2052 30.3084 58.5834 29.8114C58.9615 29.3144 59.4429 28.9053 59.9944 28.6124C60.5459 28.3195 61.1544 28.1496 61.7779 28.1146L61.7314 28.0218ZM21.5677 40.187C21.3066 38.0609 21.6825 35.9051 22.6478 33.9929C23.613 32.0807 25.1243 30.498 26.9899 29.4455C28.8555 28.393 30.9916 27.918 33.1275 28.0808C35.2634 28.2435 37.3028 29.0366 38.9875 30.3595C40.6722 31.6825 41.9262 33.4758 42.5907 35.5122C43.2551 37.5486 43.3001 39.7364 42.72 41.7984C42.1398 43.8604 40.9606 45.7037 39.3317 47.0948C37.7029 48.486 35.6977 49.3623 33.5704 49.6127C30.729 49.9533 27.8686 49.1518 25.6179 47.3843C23.3673 45.6169 21.9105 43.0281 21.5677 40.187ZM55.2774 36.7974C60.7331 35.5205 62.6601 43.9479 57.1347 45.2248C56.5723 45.3722 55.9859 45.4046 55.4107 45.3199C54.8355 45.2352 54.2833 45.0352 53.7873 44.7319C53.2912 44.4286 52.8616 44.0283 52.524 43.5549C52.1864 43.0816 51.9479 42.5449 51.8228 41.9771C51.6977 41.4093 51.6885 40.8221 51.7958 40.2507C51.9031 39.6793 52.1247 39.1355 52.4473 38.6518C52.7699 38.1681 53.1869 37.7545 53.6732 37.4359C54.1595 37.1172 54.7051 36.9001 55.2774 36.7974V36.7974ZM68.2784 36.7974C73.7341 35.5205 75.661 43.9479 70.1356 45.2248C69.5732 45.3722 68.9869 45.4046 68.4117 45.3199C67.8365 45.2352 67.2843 45.0352 66.7883 44.7319C66.2922 44.4286 65.8625 44.0283 65.525 43.5549C65.1874 43.0816 64.9489 42.5449 64.8238 41.9771C64.6987 41.4093 64.6895 40.8221 64.7968 40.2507C64.9041 39.6793 65.1257 39.1355 65.4483 38.6518C65.7709 38.1681 66.1878 37.7545 66.6741 37.4359C67.1604 37.1172 67.7061 36.9001 68.2784 36.7974V36.7974ZM80.0721 6.96481H14.9279C13.8779 6.94916 12.8353 7.14444 11.8621 7.53908C10.8889 7.93372 10.0049 8.51969 9.26228 9.26228C8.51969 10.0049 7.93372 10.8889 7.53908 11.8621C7.14444 12.8353 6.94916 13.8779 6.96481 14.9279V80.0721C6.97093 82.1575 7.80208 84.1558 9.27671 85.6304C10.7513 87.1051 12.7496 87.9362 14.835 87.9423H80.0721C82.1557 87.9302 84.1504 87.0971 85.6237 85.6237C87.0971 84.1504 87.9302 82.1557 87.9423 80.0721V14.9279C87.9515 13.8874 87.7549 12.8554 87.3638 11.8912C86.9727 10.927 86.3948 10.0496 85.6633 9.30955C84.9319 8.56949 84.0614 7.98134 83.1018 7.57894C82.1423 7.17654 81.1126 6.96783 80.0721 6.96481V6.96481ZM14.9279 0H80.0721C84.0275 0.0122458 87.8173 1.58894 90.6142 4.38581C93.4111 7.18269 94.9878 10.9725 95 14.9279V80.0721C94.9878 84.0275 93.4111 87.8173 90.6142 90.6142C87.8173 93.4111 84.0275 94.9878 80.0721 95H14.9279C10.9725 94.9878 7.18269 93.4111 4.38581 90.6142C1.58894 87.8173 0.0122458 84.0275 0 80.0721L0 14.9279C0.0122458 10.9725 1.58894 7.18269 4.38581 4.38581C7.18269 1.58894 10.9725 0.0122458 14.9279 0V0ZM58.4115 50.4949C58.2797 49.399 58.5702 48.2941 59.224 47.4049C59.8777 46.5156 60.8457 45.9087 61.9309 45.7076C63.0162 45.5065 64.1373 45.7263 65.0663 46.3224C65.9952 46.9184 66.6623 47.8459 66.9318 48.9162C67.0636 50.012 66.7731 51.1169 66.1194 52.0062C65.4656 52.8955 64.4977 53.5024 63.4124 53.7034C62.3272 53.9045 61.2061 53.6847 60.2771 53.0887C59.3481 52.4927 58.6811 51.5652 58.4115 50.4949V50.4949Z" fill="#231F20"/>
</svg>
