<svg width="93" height="95" viewBox="0 0 93 95" fill="none" xmlns="http://www.w3.org/2000/svg">
<path fill-rule="evenodd" clip-rule="evenodd" d="M0 67.9301H49.7848C54.4441 67.9301 49.9479 79.3524 52.7901 79.3524C60.9439 79.3524 59.1268 80.7454 59.1268 74.5467C59.1268 65.6782 66.1157 59.4563 73.1047 57.2972C75.6625 56.64 78.3274 56.5069 80.9383 56.906C83.5491 57.305 86.0516 58.2279 88.2941 59.6188V38.469H0V67.9301ZM47.6648 47.5C47.6648 44.9927 51.8815 44.6676 51.8815 46.8964C51.8815 48.2661 52.1378 49.5894 49.5519 49.5894C48.62 49.5894 47.6648 48.359 47.6648 47.5ZM49.7848 56.7864C53.0231 56.7864 52.2543 61.0117 49.7848 61.0117C47.3154 61.0117 46.733 56.8096 49.7848 56.8096V56.7864ZM0 28.8575V33.9651H88.3873C88.3873 30.2969 89.1794 27.0002 86.0576 27.0002H2.32966C1.30461 27.0467 0 27.8592 0 28.8575ZM63.3434 75.7539C63.3434 88.8478 79.4181 95.2786 88.3174 86.5029C89.5814 85.4225 90.5982 84.0846 91.2994 82.5794C92.3372 80.5949 92.9088 78.4012 92.971 76.1642C93.0332 73.9272 92.5843 71.7054 91.6583 69.6666C90.7323 67.6279 89.3534 65.8256 87.6258 64.3959C85.8981 62.9662 83.867 61.9466 81.6859 61.4141C79.5047 60.8816 77.2307 60.8501 75.0355 61.322C72.8404 61.7939 70.7816 62.7569 69.0148 64.1382C67.248 65.5194 65.8193 67.2829 64.8368 69.2952C63.8543 71.3075 63.3437 73.516 63.3434 75.7539V75.7539ZM70.3324 75.7539C70.4068 73.6975 71.2358 71.7397 72.6621 70.2517C73.7601 69.1083 75.1838 68.3282 76.741 68.0169C78.2981 67.7056 79.9136 67.878 81.3692 68.5109C82.8249 69.1438 84.0505 70.2067 84.8806 71.5559C85.7107 72.9052 86.1053 74.4758 86.011 76.0557C86.011 84.6224 74.0832 86.1315 71.0546 78.9577C70.6829 77.9206 70.4251 76.8464 70.2858 75.7539H70.3324ZM0 76.9612C0 78.772 1.51428 79.2828 3.30812 79.2828H47.5716V72.0858H0V76.9612ZM19.3129 22.8446H69.0744C68.7652 21.2849 68.2562 19.7712 67.5601 18.3407C66.8379 16.4834 66.5351 15.6244 63.9259 15.6244H24.3216C23.5608 15.5553 22.8006 15.7646 22.1833 16.2132C21.5659 16.6618 21.1336 17.319 20.9669 18.0621C20.2402 19.5905 19.6854 21.1945 19.3129 22.8446V22.8446ZM27.1405 1.81085C27.1405 5.61828 30.1458 4.50391 38.3229 4.50391V11.4687H49.1791C50.6934 11.4687 50.0644 8.70601 50.0644 4.50391H59.383C61.8991 4.50391 61.5962 0 59.383 0H28.9577C28.51 0.090992 28.099 0.311178 27.7759 0.633156C27.4528 0.955135 27.2318 1.36469 27.1405 1.81085V1.81085ZM11.1591 56.5078H36.2029V49.543H11.1591V56.5078ZM18.1015 90.5425C15.1195 90.5425 11.1125 89.7996 11.1125 92.632C11.1125 93.2477 11.3579 93.8382 11.7948 94.2736C12.2317 94.709 12.8243 94.9536 13.4421 94.9536H27.0008C27.507 94.9006 27.9818 94.6839 28.3528 94.3366C28.7237 93.9892 28.9703 93.5304 29.0548 93.0302C29.1393 92.5301 29.0572 92.0161 28.8209 91.5668C28.5846 91.1176 28.2071 90.7578 27.7462 90.5425H22.621V83.5777H18.1015V90.5425ZM74.8054 75.4521C74.7652 76.3757 75.0949 77.2774 75.7218 77.9587C76.3487 78.6401 77.2216 79.0454 78.1484 79.0854C79.0752 79.1254 79.98 78.7969 80.6638 78.1722C81.3475 77.5474 81.7542 76.6775 81.7943 75.7539C81.7478 71.3661 74.8054 71.1107 74.8054 75.4521ZM38.3229 61.035H9.31864C8.2237 61.035 6.98898 60.1992 6.98898 59.2241V47.5C6.94652 47.2148 6.97126 46.9237 7.06124 46.6497C7.15123 46.3757 7.30398 46.1264 7.50741 45.9214C7.71084 45.7164 7.95936 45.5614 8.23329 45.4687C8.50723 45.3761 8.79906 45.3482 9.08567 45.3873H38.9053C39.8838 45.3873 40.7224 46.6874 40.7224 47.7089V58.5276C40.7489 58.8537 40.7059 59.1817 40.5962 59.49C40.4866 59.7984 40.3128 60.0802 40.0862 60.3169C39.8597 60.5536 39.5855 60.74 39.2816 60.8637C38.9777 60.9875 38.651 61.0458 38.3229 61.035Z" fill="#231F20"/>
</svg>
