<svg width="189" height="138" viewBox="0 0 189 138" fill="none" xmlns="http://www.w3.org/2000/svg">
<path d="M16.7543 132V126.76C16.7543 124.94 16.7343 123.56 16.5943 122.68L20.2943 132H22.6543L26.3743 122.66C26.2343 123.7 26.2343 124.56 26.2343 127.5V132H28.7143V117.38H26.1943L21.4743 129.02L16.7543 117.38H14.2743V132H16.7543ZM38.2901 122.12V127.3C38.2901 129.18 37.5501 130.08 36.0101 130.08C34.6501 130.08 33.9101 129.32 33.9101 127.44V122.12H31.4701V128.3C31.4701 130.72 32.8101 132.26 35.0901 132.26C36.4101 132.26 37.6901 131.62 38.2901 130.68L38.4701 132H40.7301V122.12H38.2901ZM45.7102 132V117.12H43.2902V132H45.7102ZM51.6298 132V124.16H53.5498V122.12H51.6298V119.04H49.1898V122.12H47.2898V124.16H49.1898V132H51.6298ZM56.2866 120.14C57.0866 120.14 57.7466 119.48 57.7466 118.66C57.7466 117.84 57.0866 117.2 56.2866 117.2C55.4466 117.2 54.7866 117.84 54.7866 118.66C54.7866 119.48 55.4466 120.14 56.2866 120.14ZM55.0666 132H57.5066V122.12H55.0666V132ZM60.0276 136.58H62.4676V130.68C63.0876 131.68 64.3676 132.26 65.8476 132.26C68.7876 132.26 70.4676 130.02 70.4676 126.94C70.4676 123.84 68.6276 121.82 65.8476 121.82C64.3476 121.82 63.0476 122.48 62.4476 123.62L62.2876 122.12H60.0276V136.58ZM62.4876 127.06C62.4876 125.28 63.5876 124.04 65.2676 124.04C66.9876 124.04 68.0076 125.3 68.0076 127.06C68.0076 128.82 66.9876 130.06 65.2676 130.06C63.5876 130.06 62.4876 128.84 62.4876 127.06ZM78.876 122.12V127.3C78.876 129.18 78.136 130.08 76.596 130.08C75.236 130.08 74.496 129.32 74.496 127.44V122.12H72.056V128.3C72.056 130.72 73.396 132.26 75.676 132.26C76.996 132.26 78.276 131.62 78.876 130.68L79.056 132H81.316V122.12H78.876ZM90.0362 122.08C89.6362 121.98 89.2962 121.94 88.9562 121.94C87.6362 121.94 86.6962 122.6 86.2762 123.58L86.1362 122.14H83.8362V132H86.2762V127.2C86.2762 125.28 87.3762 124.34 89.1362 124.34H90.0362V122.08ZM91.6877 136.58H94.1277V130.68C94.7477 131.68 96.0277 132.26 97.5077 132.26C100.448 132.26 102.128 130.02 102.128 126.94C102.128 123.84 100.288 121.82 97.5077 121.82C96.0077 121.82 94.7077 122.48 94.1077 123.62L93.9477 122.12H91.6877V136.58ZM94.1477 127.06C94.1477 125.28 95.2477 124.04 96.9277 124.04C98.6477 124.04 99.6677 125.3 99.6677 127.06C99.6677 128.82 98.6477 130.06 96.9277 130.06C95.2477 130.06 94.1477 128.84 94.1477 127.06ZM103.491 127.04C103.491 130.12 105.711 132.24 108.771 132.24C111.831 132.24 114.051 130.12 114.051 127.04C114.051 123.96 111.831 121.84 108.771 121.84C105.711 121.84 103.491 123.96 103.491 127.04ZM105.931 127.04C105.931 125.24 107.091 124.02 108.771 124.02C110.451 124.02 111.611 125.24 111.611 127.04C111.611 128.84 110.451 130.06 108.771 130.06C107.091 130.06 105.931 128.84 105.931 127.04ZM115.225 129C115.225 130.94 116.785 132.26 119.245 132.26C121.685 132.26 123.385 131.02 123.385 129.02C123.385 127.5 122.545 126.74 120.885 126.36L119.105 125.94C118.265 125.74 117.825 125.38 117.825 124.82C117.825 124.08 118.385 123.64 119.345 123.64C120.285 123.64 120.845 124.18 120.865 125.02H123.185C123.165 123.1 121.665 121.82 119.445 121.82C117.165 121.82 115.525 122.98 115.525 124.92C115.525 126.5 116.385 127.34 118.165 127.74L119.945 128.16C120.825 128.36 121.085 128.72 121.085 129.22C121.085 129.94 120.465 130.4 119.325 130.4C118.205 130.4 117.565 129.86 117.545 129H115.225ZM129.662 132.26C132.242 132.26 134.042 130.96 134.462 128.8H132.202C131.922 129.74 131.042 130.26 129.702 130.26C128.082 130.26 127.162 129.38 126.982 127.64L134.422 127.62V126.88C134.422 123.8 132.542 121.82 129.582 121.82C126.682 121.82 124.662 123.96 124.662 127.06C124.662 130.12 126.722 132.26 129.662 132.26ZM129.602 123.82C131.062 123.82 132.002 124.72 132.002 126.08H127.042C127.282 124.6 128.162 123.82 129.602 123.82ZM144.686 132V125.8H151.166V132H153.726V117.38H151.166V123.42H144.686V117.38H142.126V132H144.686ZM159.55 132.26C161.09 132.26 162.43 131.56 162.85 130.54L163.03 132H165.17V126C165.17 123.26 163.53 121.82 160.87 121.82C158.19 121.82 156.43 123.22 156.43 125.36H158.51C158.51 124.32 159.31 123.72 160.75 123.72C161.99 123.72 162.79 124.26 162.79 125.6V125.82L159.83 126.04C157.49 126.22 156.17 127.36 156.17 129.18C156.17 131.04 157.45 132.26 159.55 132.26ZM160.35 130.42C159.25 130.42 158.65 129.98 158.65 129.08C158.65 128.28 159.23 127.78 160.75 127.64L162.81 127.48V128C162.81 129.52 161.85 130.42 160.35 130.42ZM170.027 132V117.12H167.607V132H170.027ZM175.046 132V117.12H172.626V132H175.046Z" fill="#231F20"/>
<g clip-path="url(#clip0_72_187)">
<path fill-rule="evenodd" clip-rule="evenodd" d="M69.5442 47.9643C69.7748 47.6074 69.8653 47.1772 69.7983 46.757C69.7983 44.2961 69.7983 39.7922 69.7983 37.726H79.9425V40.7441C79.9425 40.9995 79.7345 40.9066 80.2198 40.9066C81.7171 40.8031 83.2213 40.8732 84.7026 41.1155L84.9799 41.2316H85.2803C86.1835 41.4167 87.0605 41.713 87.8914 42.1138H88.1456C88.5203 42.3865 88.9441 42.5835 89.3934 42.6942V37.8189H99.3989V49.4269C99.9995 49.3654 100.594 49.2567 101.178 49.1019H101.479C102.834 48.7416 104.259 48.7416 105.615 49.1019C106.398 49.2495 107.17 49.4511 107.926 49.7055C108.226 49.9007 108.565 50.0275 108.919 50.0769V37.8189H115.181C116.198 37.8189 116.29 37.1688 117.03 36.542L119.341 34.9401C120.166 34.4056 121.05 33.9693 121.975 33.64C123.189 33.1386 124.477 32.8406 125.788 32.7578C126.551 32.6273 127.324 32.5575 128.098 32.5488H128.63C129.872 32.6817 131.107 32.8833 132.327 33.1524V33.1524L133.968 33.8025C134.416 33.9737 134.849 34.1834 135.262 34.4293C135.423 34.5435 135.593 34.6444 135.77 34.7311C136.603 35.1943 137.379 35.7555 138.081 36.4027L139.375 37.6796C139.978 38.2864 140.506 38.9646 140.946 39.6994C140.95 39.7844 140.95 39.8697 140.946 39.9547L141.293 40.4191C142.078 41.7656 142.148 42.3924 142.702 43.4371C143.47 43.2251 144.171 42.8173 144.736 42.2531C145.226 41.9556 145.651 41.5606 145.983 41.0923C145.983 40.8834 146.214 40.7441 146.307 40.5816C146.838 39.4125 147.045 38.1213 146.908 36.8438C146.789 36.285 146.635 35.7344 146.446 35.1955L145.891 34.1972C145.582 33.6879 145.191 33.233 144.736 32.8506C143.834 32.0381 141.27 30.529 140.114 29.6933L130.109 22.9142H129.854L129.554 22.6588L126.758 20.7783C126.607 20.6542 126.445 20.5453 126.273 20.4533L125.187 19.6175C125.019 19.5213 124.864 19.4043 124.725 19.2693L124.216 18.9442L124.008 18.7817C123.431 18.2942 122.737 17.9924 122.137 17.5281L121.952 17.3655C121.808 17.2559 121.653 17.1625 121.49 17.0869C120.986 16.7653 120.5 16.4166 120.034 16.0422L119.086 15.4386L118.578 15.1136L113.448 11.608C113.009 11.2597 112.177 10.8186 111.692 10.4936L110.028 9.28636L109.728 9.12385L109.543 8.96134C109.462 8.88383 109.368 8.82099 109.266 8.77561C108.922 8.5701 108.591 8.34532 108.272 8.10234L107.371 7.4523L106.839 7.15049L103.466 4.82888C103.122 4.62321 102.791 4.39844 102.472 4.15562L102.241 4.01632L97.6196 0.882159C96.4238 0.123552 95.0007 -0.188709 93.599 -5.06843e-05C92.7246 0.115184 91.8788 0.390596 91.1034 0.81251C90.4101 1.18397 89.8324 1.71794 89.1854 2.13582L84.148 5.59501L82.5767 6.68617H82.4612L78.5791 9.42566C77.909 9.88998 77.2389 10.2614 76.615 10.7722C75.9911 11.2829 76.0142 11.1436 75.6214 11.4222L75.4134 11.608L73.7035 12.7456L73.4955 12.9313L71.1848 14.3939L70.6995 14.7189L69.729 15.5547C69.5442 15.7172 69.729 15.5547 69.4517 15.7172L63.9291 19.4086L62.1498 20.5926L57.251 23.9589L56.2805 24.6554C56.1269 24.7618 55.9645 24.855 55.7953 24.934L53.8542 26.2805C53.7661 26.3052 53.6863 26.3533 53.6232 26.4198V26.4198H53.5538C52.953 26.8609 52.306 27.1627 51.7284 27.627L46.6216 31.2719L46.0901 31.5738L45.628 31.922C44.6437 32.5207 43.7876 33.3098 43.1093 34.2436C42.8437 34.5687 42.6542 34.9495 42.5547 35.358L42.4392 35.7062C42.0802 36.9734 42.0802 38.3161 42.4392 39.5833C42.537 39.7627 42.622 39.9489 42.6934 40.1405C42.7625 40.348 42.8475 40.5498 42.9475 40.7441C43.0306 40.9219 43.1397 41.0862 43.271 41.2316C44.0698 42.3561 45.1666 43.2329 46.4368 43.7622C48.9547 44.1928 51.5158 44.3098 54.0622 44.1104V56.3685L55.102 56.2292C56.2274 56.111 57.3638 56.158 58.4757 56.3685C58.7996 56.4074 59.1177 56.4854 59.4231 56.6006C60.061 56.8377 60.6858 57.109 61.2948 57.4132C61.7587 57.637 62.2066 57.893 62.635 58.1793L64.553 59.8509C64.784 60.2223 64.9227 60.2688 65.3155 60.8492C65.5934 61.1903 65.8409 61.5555 66.0549 61.9403C66.2167 62.3118 66.3784 62.869 66.8406 62.66C67.3027 62.4511 66.6095 62.7993 66.9561 62.66C67.3565 62.4472 67.7842 62.291 68.227 62.1957L68.8971 61.9635C68.8292 61.4064 68.6483 60.8691 68.3657 60.3849C68.108 59.702 67.9221 58.9939 67.8111 58.2722V58.0632V57.924C67.5472 56.5785 67.4926 55.2001 67.6494 53.8379C67.7811 52.9033 67.9819 51.9799 68.2501 51.0752C68.2501 50.8895 68.2501 50.7734 68.3657 50.6341L68.8509 49.4733C69.0589 48.8697 69.4748 48.684 69.5442 47.9875" fill="#231F20"/>
<path fill-rule="evenodd" clip-rule="evenodd" d="M110.975 74.5232L109.011 73.3624L107.624 72.8053C107.497 72.7528 107.373 72.6907 107.255 72.6195C105.086 71.9968 102.796 71.9409 100.6 72.457L100.115 72.5963L98.1736 73.4321C97.5315 73.7449 96.9203 74.118 96.3481 74.5465C96.117 74.7786 96.3481 74.5465 95.9553 74.8947C95.5624 75.2429 95.4931 75.3358 95.1696 75.568C95.1696 75.2429 95.1696 75.4054 94.9154 75.1501L94.6612 74.7554C94.4534 74.5343 94.2676 74.2933 94.1067 74.0357C93.9218 73.7107 93.7138 73.641 93.529 73.3392C93.3421 73.0958 93.1415 72.8632 92.9282 72.6427L90.6174 70.5997C90.1994 70.2706 89.7505 69.9829 89.2772 69.7407L88.4685 69.2532C87.7244 68.8816 86.9516 68.571 86.1577 68.3246H85.9266L84.6326 67.9763C82.5312 67.6031 80.3724 67.7223 78.3243 68.3246C77.6232 68.5025 76.9419 68.7514 76.2909 69.0675C76.1276 68.7055 75.8916 68.3814 75.5976 68.1156C75.0213 67.4891 74.3208 66.9908 73.5411 66.653L72.1546 66.3048C71.4463 66.0905 70.6909 66.0905 69.9825 66.3048C69.5123 66.3601 69.0528 66.4853 68.6192 66.6762C67.7156 67.188 66.9286 67.8839 66.3085 68.7192C65.6478 69.7121 65.2951 70.8796 65.2951 72.0739C65.2951 73.2683 65.6478 74.4358 66.3085 75.4287C66.7794 76.115 67.3753 76.7058 68.0646 77.1699C67.8523 77.5269 67.6669 77.8994 67.5101 78.2842C67.5101 78.4468 67.3483 78.6557 67.279 78.8646L67.1634 79.2129L66.7937 80.1415C66.5858 80.8148 66.3316 80.6291 65.8925 81.0702L65.4997 81.4184C65.2455 81.1862 64.4599 80.0487 63.9515 79.5379L61.9412 77.7735L61.6639 77.611C61.0226 77.2419 60.3498 76.9311 59.6535 76.6823V76.6823L59.2145 76.6127C57.559 76.1482 55.8186 76.0767 54.1309 76.4037L53.5532 76.4734C53.3511 76.5243 53.1568 76.6023 52.9755 76.7055C52.5878 76.8244 52.2093 76.9718 51.8432 77.1466L49.9946 78.3539C49.7405 78.5628 49.9946 78.4932 49.6249 78.7253C49.2552 78.9575 49.209 79.12 48.8162 79.4683L48.0767 80.2808C47.9337 80.4217 47.8163 80.5867 47.7301 80.7684L46.9214 81.9988C46.3837 82.8952 45.9569 83.8541 45.6505 84.8544L45.2807 86.0384C45.119 86.6884 45.119 87.3849 44.911 87.9885C44.6573 89.198 44.6573 90.4472 44.911 91.6567C45.0412 92.2549 45.2879 92.8213 45.6369 93.3234C45.9859 93.8254 46.4303 94.2531 46.9445 94.5819C47.531 94.8791 48.1827 95.0228 48.8393 94.9998H112.801C113.24 94.9998 113.424 94.9998 113.725 94.9998C114.025 94.9998 114.187 94.9998 114.649 94.9998H140.437C141.589 95.016 142.719 94.6756 143.672 94.0247C144.182 93.6552 144.648 93.2266 145.058 92.7478C145.22 92.5157 145.197 92.4692 145.382 92.2371L145.59 91.9817L145.96 91.262C146.232 90.6118 146.464 89.9449 146.653 89.2654C146.977 87.4569 147.024 85.6092 146.792 83.7864C146.792 83.3685 146.792 83.7864 146.63 83.2989L146.306 80.9773C146.11 79.9452 145.84 78.9287 145.498 77.936L143.117 72.666L140.16 68.7889C139.721 68.2781 139.12 67.8138 138.658 67.3495L136.809 65.9797C136.678 65.8962 136.538 65.8262 136.393 65.7708C136.254 65.7014 136.129 65.607 136.023 65.4922L135.608 65.26L135.169 65.0047H134.984L134.753 64.8654C133.785 64.3953 132.77 64.0296 131.726 63.7742C128.791 62.9675 125.687 63.0239 122.783 63.9367L121.489 64.3778C121.295 64.4714 121.094 64.5491 120.888 64.61L118.577 65.8172C117.517 66.4797 116.533 67.2583 115.643 68.1388L112.246 72.3177C111.887 72.8292 111.563 73.3644 111.275 73.9196C111.137 74.1982 111.091 74.2679 110.975 74.5232" fill="#231F20"/>
<path fill-rule="evenodd" clip-rule="evenodd" d="M49.1865 67.1406C49.1302 67.9822 49.2003 68.8274 49.3945 69.648L49.9028 70.9016C50.5077 72.1927 51.5132 73.2517 52.7682 73.9197L53.5538 74.2912C53.8908 74.4976 54.2701 74.6246 54.663 74.6626C56.115 74.9847 57.6302 74.8551 59.0072 74.2912C59.3932 74.1571 59.7587 73.9696 60.0932 73.734C60.4575 73.5251 60.7918 73.2673 61.0868 72.9678C61.7839 72.3231 62.3287 71.5299 62.6812 70.6462C63.3441 68.8712 63.3849 66.9222 62.7968 65.1208C62.7105 64.9353 62.6101 64.7568 62.4964 64.5869C62.196 64.0297 62.4964 64.3547 61.988 63.7047V63.5654C61.5359 62.9139 60.9726 62.348 60.3243 61.8938C59.9286 61.5868 59.483 61.3512 59.0072 61.1973H58.8685C58.634 61.0359 58.3648 60.9325 58.0829 60.8955C56.7104 60.5911 55.2818 60.6633 53.9466 61.1045C53.326 61.3415 52.7363 61.6533 52.1905 62.0331L51.2431 62.6831C50.8965 62.9385 51.2431 62.7992 50.8965 63.1475C50.5498 63.4957 50.6192 63.3332 50.4574 63.5421L49.4638 65.5852C49.2379 66.0889 49.1199 66.6346 49.1172 67.1871" fill="#231F20"/>
<path fill-rule="evenodd" clip-rule="evenodd" d="M115.644 48.7538C115.629 49.7604 115.73 50.7653 115.944 51.7487L116.106 52.1434C116.34 53.2083 116.746 54.2278 117.307 55.1615L119.826 58.1795C119.826 58.1795 119.826 58.1795 120.034 58.3188L121.675 59.4564C122.473 59.9095 123.327 60.253 124.216 60.4779L124.586 60.594C126.22 60.9926 127.918 61.0558 129.577 60.7797L130.386 60.5708C131.084 60.3939 131.765 60.153 132.419 59.8511C132.746 59.7282 133.063 59.5807 133.367 59.41C133.529 59.2707 133.367 59.41 133.552 59.2475C134.132 58.9167 134.688 58.5443 135.215 58.1331C135.377 57.9706 135.215 57.9474 135.562 57.7384C136.55 56.8564 137.338 55.7718 137.873 54.5578C137.948 54.3978 138.033 54.2427 138.127 54.0935C138.297 53.775 138.437 53.4407 138.543 53.0952L138.728 52.5613C139.367 50.284 139.367 47.8737 138.728 45.5964L138.451 44.8535C138.111 43.8855 137.637 42.9709 137.041 42.1373C136.72 41.6643 136.348 41.2283 135.932 40.8372C135.447 40.1175 135.655 40.605 135.262 40.1407C135.163 39.9948 135.037 39.8688 134.892 39.7692L134.661 39.6299L132.627 38.3298C131.957 37.9816 131.726 37.9584 131.079 37.6798C129 36.9842 126.773 36.8639 124.632 37.3315L123.569 37.6333C123.2 37.7959 122.83 37.8887 122.506 38.028C122.183 38.1673 121.906 38.3298 121.513 38.5156C121.12 38.7013 120.381 39.3746 119.78 39.7228C119.179 40.071 118.624 40.8372 118.278 41.1622L117.215 42.6944C117.053 42.9962 116.961 43.0195 116.799 43.3677C116.741 43.5462 116.664 43.7175 116.568 43.8785C116.359 44.1965 116.21 44.5507 116.129 44.9232C115.676 46.1494 115.442 47.446 115.436 48.7538" fill="#231F20"/>
<path fill-rule="evenodd" clip-rule="evenodd" d="M71.7858 55.44C71.7074 56.3998 71.8334 57.3653 72.1555 58.2723C72.2716 58.7966 72.434 59.3093 72.6408 59.8046C72.8738 60.2968 73.1442 60.7702 73.4495 61.2208C74.1386 62.2561 74.9891 63.1732 75.9682 63.937L76.2455 64.146C76.364 64.2171 76.4875 64.2792 76.6152 64.3317L76.985 64.5871C78.1692 65.2775 79.4997 65.6754 80.867 65.7479C81.3916 65.939 81.9538 66.0027 82.5076 65.9336C82.9467 65.9336 82.5076 65.7943 83.2471 65.7479C84.0968 65.7237 84.935 65.5427 85.7196 65.2139C86.1362 65.0655 86.5384 64.879 86.9211 64.6567L88.6311 63.4959L90.3873 61.4994L91.7506 58.6206C92.0348 57.7192 92.1828 56.7801 92.1896 55.8346C92.1826 54.7994 92.0428 53.7694 91.7737 52.7701V52.7701C91.592 52.2305 91.3758 51.7032 91.1267 51.1914C91.0151 50.9916 90.9223 50.7817 90.8494 50.5646C90.4284 49.7375 89.847 49.0034 89.1395 48.4055C88.7928 48.1269 88.7697 47.9412 88.4231 47.7322L85.6965 46.1303C84.8126 45.8329 83.8978 45.6381 82.9698 45.5499C82.6001 45.5499 82.9698 45.4106 82.577 45.4106H81.3985C81.0288 45.4106 81.3985 45.4106 81.0057 45.5499C80.142 45.6239 79.2894 45.7952 78.4638 46.0607C78.3217 46.1389 78.1751 46.2087 78.0248 46.2696C76.4973 46.874 75.1518 47.8659 74.1196 49.1484C73.8193 49.4967 73.6344 49.8681 73.3571 50.2396C73.1172 50.6002 72.9084 50.9808 72.7332 51.3772C72.095 52.6769 71.7629 54.1067 71.7627 55.5561" fill="#231F20"/>
<path fill-rule="evenodd" clip-rule="evenodd" d="M95.0081 61.5224C94.9508 62.3762 94.9973 63.2338 95.1468 64.0762L96.6488 67.0943C96.8774 67.4169 97.1325 67.7198 97.4113 67.9997C97.7406 68.3459 98.1045 68.6571 98.4974 68.9283L98.6591 69.0444C99.9732 69.8778 101.475 70.3649 103.026 70.4606C104.143 70.5498 105.265 70.3831 106.308 69.9731C106.606 69.9264 106.886 69.7979 107.116 69.6016C107.555 69.3462 107.787 69.3462 108.11 69.1141C108.943 68.5503 109.676 67.8522 110.282 67.0478V67.0478C110.971 66.088 111.48 65.0102 111.784 63.8672C112.136 62.3263 112.048 60.7169 111.53 59.224C111.33 58.2892 110.902 57.4193 110.282 56.6935L109.543 55.7881C109.265 55.4398 109.312 55.5791 108.988 55.3237C108.665 55.0684 109.011 55.2541 109.011 55.1148L108.688 54.8826C108.033 54.4428 107.336 54.0695 106.608 53.7683C104.546 53.079 102.306 53.1614 100.3 54.0004C100.054 54.0827 99.8143 54.1836 99.5834 54.3022L98.4743 55.0219C98.2201 55.2541 98.4743 55.2077 98.0352 55.4166C97.5962 55.6255 98.0352 55.4166 97.7117 55.6488L97.5037 55.8809L96.7412 56.7863C96.289 57.415 95.9237 58.1022 95.6551 58.8294L95.4241 59.433C95.2302 60.1126 95.1291 60.8155 95.1237 61.5224" fill="#231F20"/>
</g>
<defs>
<clipPath id="clip0_72_187">
<rect width="105" height="95" fill="white" transform="translate(42)"/>
</clipPath>
</defs>
</svg>
