<svg width="68" height="100" viewBox="0 0 68 100" fill="none" xmlns="http://www.w3.org/2000/svg">
<path fill-rule="evenodd" clip-rule="evenodd" d="M0.010381 35.466V64.1138H3.71631V34.5151C3.71894 32.2411 3.93114 29.9722 4.35022 27.7372C5.52799 22.1299 8.24682 16.9624 12.2009 12.8159C14.1072 10.9277 16.2454 9.28921 18.5644 7.93969C23.5166 5.02043 29.2 3.5773 34.9451 3.78032C40.6901 3.98334 46.2575 5.82405 50.9913 9.08561L55.0142 12.2064L58.3544 16.1074C58.842 16.8144 59.3052 17.4727 59.7441 18.2041L61.0607 20.6423C62.3193 23.2761 63.1977 26.0754 63.6695 28.9562C63.8645 30.0534 63.8889 31.248 64.1083 32.2233H67.6192C67.429 25.7855 65.3145 19.5523 61.5483 14.3275C59.0429 10.8035 55.9107 7.77042 52.3079 5.37968L48.285 3.18538C43.631 0.940876 38.5038 -0.146462 33.3394 0.015834C28.5474 0.0540295 23.8244 1.16189 19.5153 3.25852C17.5872 4.1423 15.7499 5.212 14.0295 6.45245C13.2981 7.01321 12.3472 7.6715 11.5914 8.32979C11.2586 8.71134 10.9002 9.06976 10.5186 9.40256C7.92507 11.873 5.73649 14.7362 4.03326 17.8872C3.4725 18.8868 3.17993 19.7402 2.66792 20.7885C0.795744 25.4331 -0.108566 30.4109 0.010381 35.4172V35.466ZM64.1083 66.8445C63.8815 74.5197 60.7334 81.8189 55.3067 87.2514C54.7389 87.8634 54.1278 88.4338 53.4782 88.9581L49.1627 92.0301C42.6539 95.8337 34.9551 97.0573 27.5878 95.4592C20.2205 93.8612 13.7206 89.5577 9.37273 83.3992C8.90949 82.7166 8.42186 82.0583 7.95862 81.3024C7.49255 80.5131 7.06933 79.6992 6.69081 78.8643C5.19402 75.7467 4.26912 72.3857 3.96012 68.9412C3.78945 67.3565 4.47212 67.6246 0.20543 67.6246C0.38824 72.0826 1.48358 76.4557 3.42374 80.4735C3.83822 81.3268 4.30146 82.2533 4.7647 83.0335C9.40864 90.8238 16.9467 96.4598 25.7325 98.7106C28.1951 99.2946 30.7117 99.6214 33.2418 99.6858H35.4118C37.6769 99.6414 39.9283 99.3221 42.1166 98.7349C44.2492 98.2131 46.3239 97.478 48.3094 96.5406L55.8919 91.6644C59.6336 88.4836 62.6382 84.5265 64.697 80.0678C66.7558 75.6092 67.8195 70.7559 67.8142 65.8448V35.661H64.1083V66.8445ZM7.32471 32.3696V64.065H10.9331V32.7597C11.1833 27.4353 13.2719 22.3624 16.8429 18.4053C20.4139 14.4481 25.2465 11.8515 30.5173 11.0579C35.7881 10.2642 41.1711 11.3226 45.749 14.0528C50.327 16.7829 53.8167 21.0159 55.6237 26.0305C56.8216 29.7006 57.326 33.5617 57.1109 37.4165H60.5974C60.8773 33.8651 60.5809 30.2918 59.7197 26.8351C58.2998 21.6892 55.3765 17.0842 51.324 13.6094C47.2716 10.1346 42.2744 7.94828 36.9721 7.33017C33.2929 6.92335 29.5694 7.27839 26.0333 8.37318C22.4973 9.46796 19.2245 11.279 16.4189 13.6936C15.5167 14.4116 14.6988 15.2296 13.9808 16.1317L12.4691 17.9359C9.38714 22.1445 7.59935 27.1604 7.32471 32.3696V32.3696ZM57.1109 63.4067C57.1109 70.209 55.8431 76.1093 51.5033 81.0099C49.6656 83.1108 47.4698 84.8691 45.0179 86.203C40.2378 88.866 34.664 89.7349 29.3002 88.6532C23.9364 87.5715 19.135 84.6103 15.7606 80.3028L14.639 78.5474C12.5625 75.2502 11.3005 71.5061 10.9575 67.6246H7.32471C7.76559 74.3488 10.6947 80.6678 15.5411 85.3497C17.7336 87.5642 20.3441 89.3212 23.2212 90.5185C24.7883 91.2176 26.422 91.7567 28.0974 92.1277C29.0483 92.3227 29.7553 92.4446 30.9256 92.6153C34.6998 93.011 38.515 92.6377 42.1409 91.5181C43.0187 91.2499 43.6282 90.9574 44.5791 90.616C45.2983 90.3258 45.9916 89.9751 46.6514 89.5676C47.3829 89.2019 48.0412 88.8118 48.7482 88.373C52.6876 85.7517 55.8731 82.146 57.9887 77.9135C58.7092 76.4213 59.3045 74.8718 59.7685 73.2811C60.3214 71.4195 60.6247 69.4929 60.6706 67.5515V40.9273H57.1109V63.4067ZM14.2246 35.466V64.3088C14.0535 68.5108 15.1127 72.6713 17.2722 76.2799C19.156 79.3597 21.8795 81.838 25.1229 83.4236C27.7854 84.7823 30.7245 85.511 33.7133 85.5532C36.702 85.5955 39.6606 84.9503 42.3604 83.6674C45.7201 82.0491 48.5587 79.5213 50.5541 76.3709C52.5495 73.2206 53.6216 69.5739 53.6488 65.8448V33.93C53.6655 31.3888 53.1785 28.8696 52.216 26.5178C51.2535 24.1659 49.8346 22.0281 48.0412 20.2278C46.468 18.5524 44.6003 17.1805 42.531 16.1805C39.6242 14.778 36.4183 14.1083 33.1931 14.23C29.1713 14.3864 25.2964 15.7831 22.0997 18.2285C21.1775 18.9567 20.3134 19.7555 19.5153 20.6179C15.8832 24.6881 13.9847 30.0161 14.2246 35.466V35.466Z" fill="#231F20"/>
</svg>
