<svg width="139" height="95" viewBox="0 0 139 95" fill="none" xmlns="http://www.w3.org/2000/svg">
<path fill-rule="evenodd" clip-rule="evenodd" d="M75.4837 80.6989C77.4032 84.1465 78.7034 87.9021 79.3255 91.7962C78.2897 89.9236 76.9966 88.2045 75.4837 86.6887V80.6989ZM63.5861 85.0868C61.8924 86.3967 60.4154 87.9635 59.2089 89.73C59.3978 86.6868 60.017 83.6854 61.0482 80.815C61.6536 79.097 62.8643 76.7058 63.5861 74.8717V85.0868ZM21.3506 87.1298C21.735 82.451 22.6569 77.8317 24.098 73.3627C24.7669 71.3718 25.5441 69.4187 26.4263 67.5122C27.0317 66.1425 28.5218 63.1476 28.7546 62.1029C28.1079 62.9958 27.3218 63.7796 26.4263 64.4245L22.1189 69.2766C15.134 78.0523 15.6695 81.5579 14.1328 83.9492C13.3414 82.6745 12.4208 81.4842 11.3854 80.3971C7.9861 77.3558 6.56583 75.336 0 73.6413C0.745059 75.0342 0.582077 74.5699 1.53668 75.4521C5.70733 79.97 8.42418 85.6306 9.33652 91.7033C7.47387 88.6156 5.23869 85.11 0.954606 84.2974C2.14462 85.7598 3.21887 87.3122 4.16767 88.9406C5.09899 90.8676 5.19213 93.1892 5.93719 94.9304H63.5861H75.4837V93.607C75.5925 94.0827 75.7405 94.5486 75.9261 95H135.438C135.858 93.8459 136.356 92.7212 136.928 91.6337C137.58 90.589 138.488 89.6835 139 88.7317C136.936 89.079 135.05 90.1095 133.645 91.6569C134.553 86.3172 137.696 84.9707 138.814 82.9277C136.836 83.3635 134.967 84.19 133.315 85.3583C131.664 86.5267 130.264 88.0131 129.198 89.73C129.387 86.6868 130.006 83.6854 131.037 80.815C131.829 78.4934 133.645 75.1503 134.064 73.3627C130.917 75.1489 128.136 77.512 125.868 80.3275C121.491 86.3172 123.051 87.2923 121.351 90.8211C119.838 87.6405 122.422 82.0222 123.47 79.2131C121.519 79.9552 119.762 81.1281 118.331 82.6439C116.899 84.1598 115.83 85.9791 115.205 87.9655C115.402 83.3055 116.248 78.6955 117.719 74.2681C119.419 69.3463 121.701 64.7031 122.376 62.4743C120.491 64.1149 118.753 65.9172 117.184 67.8605C115.577 69.7869 114.069 71.7939 112.667 73.8734C108.01 80.8382 108.779 83.4849 106.986 89.1031C105.915 83.2527 108.522 78.238 110.222 73.4323C107.099 75.1459 104.339 77.4482 102.096 80.2114C97.7889 85.2957 98.7203 88.6156 97.3 90.5425C96.9042 84.7385 98.1149 83.717 99.6283 78.9345C97.6769 79.5471 95.93 80.6789 94.5759 82.208C92.038 84.6921 92.8762 85.3421 91.293 87.0137C91.6965 82.3357 92.6259 77.7177 94.0637 73.2466C94.7156 71.2036 95.4839 69.2302 96.392 67.3961C97.2639 65.6356 98.0411 63.8299 98.7203 61.9868C98.0671 62.8743 97.282 63.6572 96.392 64.3084L92.1544 69.207C85.1695 77.9827 85.705 81.4883 84.1683 83.8795C83.3757 82.5995 82.4468 81.4086 81.3976 80.3275C79.644 78.5415 77.6729 76.9816 75.5303 75.6843V57.7151C76.2055 57.9704 76.741 58.2955 77.393 58.5508C78.0433 58.8318 78.7355 59.0043 79.4419 59.0616L81.1648 59.2705H81.8866L84.0752 59.0152C84.5642 58.8294 85.1229 58.7598 85.7283 58.5276C86.2146 58.3313 86.6889 58.1065 87.1486 57.8544C88.7839 56.9892 90.1887 55.7476 91.2464 54.2327L91.9914 53.0022V52.8165C92.1311 52.6307 91.9915 52.8165 92.1544 52.654C92.3174 52.4915 92.7598 50.9824 92.9228 50.3324C93.1345 49.4343 93.2438 48.5154 93.2487 47.5929L94.8087 47.4536L96.0893 47.1982C96.7179 47.1982 97.5095 46.6642 97.9752 46.6642C97.9752 46.6642 99.6516 45.7124 100.443 45.132L101.747 44.1105C102.719 42.9743 103.577 41.7457 104.308 40.4423C104.453 39.8598 104.632 39.2862 104.844 38.7243C105.159 37.4181 105.277 36.0722 105.193 34.7312C105.07 34.1101 104.984 33.4821 104.937 32.8507L104.262 31.0631C103.614 29.5562 102.654 28.2032 101.444 27.0931C100.223 26.007 98.8098 25.1568 97.2767 24.5858C97.505 24.1049 97.7778 23.6463 98.0916 23.216C98.788 21.5496 99.1822 19.7731 99.2558 17.9692C99.2323 16.1194 98.8282 14.294 98.0683 12.6063C97.8821 12.6063 97.7191 12.0259 97.6027 11.8402C96.9718 10.8204 96.1864 9.90408 95.2744 9.1239L94.5992 8.5435C94.1335 8.21848 93.5747 7.91667 93.1323 7.54521L91.7121 6.84873C91.1987 6.74356 90.6931 6.60394 90.1987 6.43084C89.7563 6.31476 89.0345 6.26833 88.662 6.15225H87.9169H85.5886L82.7714 6.96481C82.003 7.26662 81.2812 7.77737 80.6526 8.05596C79.9328 5.90242 78.6074 4.00057 76.8342 2.57698C74.9875 1.11584 72.7551 0.22063 70.408 0H68.7317C68.5687 0 67.3114 0.185728 66.9854 0.255376C66.4699 0.371605 65.9639 0.526828 65.472 0.719697C64.5388 1.04327 63.6597 1.50502 62.8643 2.08944C61.2896 3.15744 60.0088 4.60222 59.139 6.29155C58.8829 6.89516 58.6501 7.33627 58.4405 7.93988C58.1341 7.8287 57.8502 7.66357 57.6023 7.45235C57.3004 7.31721 57.012 7.15397 56.7409 6.96481L55.8794 6.70943C55.3092 6.50101 54.7259 6.33039 54.1332 6.19868C53.8354 6.16782 53.5445 6.08943 53.2717 5.96652H51.2228H50.501C49.145 6.09122 47.8171 6.42811 46.5662 6.96481C46.1227 7.22426 45.664 7.45684 45.1925 7.66129C45.041 7.81599 44.8686 7.94883 44.6802 8.05596C43.8417 8.61915 43.0956 9.3083 42.4683 10.099L41.7233 11.0276L40.3496 13.9296L39.9771 15.6476C39.814 16.9815 39.814 18.3301 39.9771 19.664L40.3496 21.4052L40.6057 21.8463C41.0015 22.8446 41.6767 23.9822 41.7931 24.3072L39.0457 25.6769C39.0457 25.8627 38.2075 26.3734 38.0213 26.5127C37.3485 27.0724 36.7464 27.7117 36.2285 28.4164L35.4368 29.5308C35.2505 30.0352 35.0248 30.5243 34.7616 30.9934L34.1563 32.5953L33.97 33.9186C33.97 34.0347 33.97 34.174 33.97 34.3133C33.97 34.4526 33.97 34.4526 33.8536 34.5919C33.8824 35.9269 34.0383 37.2562 34.3193 38.5618C34.597 39.6804 35.0032 40.7632 35.53 41.7889L35.9025 42.2996L36.7407 43.3443C37.7652 44.6444 38.8362 45.132 39.069 45.6659C39.4183 45.6659 39.069 45.6659 39.5114 45.8284L39.8374 46.0142C40.5857 46.4209 41.3641 46.7702 42.1657 47.0589L43.7023 47.4536H45.6116L45.728 49.3805C45.9516 49.9133 46.0929 50.4769 46.1471 51.0521C46.4151 51.5701 46.6484 52.1052 46.8456 52.654C47.0927 53.1809 47.3972 53.6792 47.7536 54.1398L50.2915 56.8328C50.6542 57.0175 50.972 57.279 51.2228 57.599C51.6186 57.599 51.6186 57.7383 51.9911 57.9472C54.0683 58.9322 56.351 59.4097 58.6501 59.3402C58.6501 59.3402 58.6501 59.3402 58.6501 59.3402C58.7418 59.3176 58.8377 59.3176 58.9295 59.3402C59.4568 59.1708 60.0055 59.077 60.5593 59.0616L61.2345 58.7366C61.4668 58.6719 61.6928 58.5864 61.9097 58.4812C62.3987 58.2722 62.8643 57.9936 63.3533 57.8079V73.618C60.5205 75.3698 57.9955 77.5737 55.8794 80.1417C51.5022 86.1315 53.0621 87.1066 51.3625 90.6354C49.8491 87.4548 52.4335 81.8365 53.4812 79.0274C51.5303 79.7694 49.7731 80.9424 48.3416 82.4582C46.9101 83.974 45.8414 85.7934 45.2157 87.7798C45.4128 83.1198 46.2591 78.5098 47.7303 74.0824C49.43 69.1606 51.7117 64.5174 52.3869 62.2886C50.5016 63.9292 48.7643 65.7315 47.1948 67.6747C45.5877 69.6012 44.0801 71.6081 42.6779 73.6877C38.0213 80.6525 38.7896 83.2991 36.9968 88.9174C35.9258 83.067 38.5335 78.0523 40.2332 73.2466C37.1098 74.9602 34.3501 77.2625 32.1074 80.0257C27.7301 85.2725 28.6615 88.5924 27.2412 90.589C26.8454 84.785 28.0561 83.7634 29.5695 78.9809C27.6219 79.5875 25.881 80.7207 24.5404 82.2544C22.0724 84.8082 22.9106 85.4582 21.3506 87.1298V87.1298Z" fill="#231F20"/>
</svg>
