<svg width="98" height="95" viewBox="0 0 98 95" fill="none" xmlns="http://www.w3.org/2000/svg">
<path fill-rule="evenodd" clip-rule="evenodd" d="M35.7975 19.2459H25.3799C24.4535 19.2492 23.5659 19.6163 22.9095 20.2674C22.2829 20.8827 21.9161 21.7132 21.884 22.589V34.1274C21.884 35.051 22.2523 35.9367 22.9079 36.5898C23.5635 37.2429 24.4527 37.6098 25.3799 37.6098H35.7975C36.2528 37.6089 36.7035 37.5181 37.1235 37.3428C37.5435 37.1675 37.9245 36.911 38.2445 36.5883C38.8982 35.9344 39.2666 35.0501 39.27 34.1274V22.7051C39.2639 21.7895 38.8961 20.9132 38.2462 20.2658C37.5963 19.6184 36.7165 19.252 35.7975 19.2459ZM41.3442 51.0751C41.0314 50.7743 40.6136 50.6063 40.1789 50.6063C39.7442 50.6063 39.3264 50.7743 39.0136 51.0751C38.8579 51.2307 38.7346 51.4154 38.6506 51.6185C38.5666 51.8217 38.5237 52.0394 38.5242 52.2591V55.7183C38.5237 55.938 38.5666 56.1557 38.6506 56.3588C38.7346 56.562 38.8579 56.7467 39.0136 56.9023V56.9023C39.3264 57.203 39.7442 57.3711 40.1789 57.3711C40.6136 57.3711 41.0314 57.203 41.3442 56.9023V56.9023C41.5211 56.7567 41.6661 56.5765 41.7704 56.3729C41.8746 56.1692 41.9358 55.9464 41.9501 55.7183V52.468C41.9507 52.2483 41.9077 52.0307 41.8237 51.8275C41.7398 51.6243 41.6164 51.4396 41.4607 51.284L41.3442 51.0751ZM40.1556 48.1731C40.6934 48.1745 41.2256 48.282 41.7216 48.4892C42.2176 48.6963 42.6675 48.9992 43.0455 49.3803V49.3803C43.4436 49.7658 43.7585 50.2282 43.9709 50.7392C44.1833 51.2502 44.2887 51.799 44.2807 52.352V55.7183C44.2792 56.254 44.1714 56.7842 43.9634 57.2782C43.7554 57.7723 43.4514 58.2205 43.0688 58.5971V58.5971C42.3004 59.357 41.2616 59.7834 40.1789 59.7834C39.0962 59.7834 38.0574 59.357 37.289 58.5971V58.5971C36.898 58.2257 36.5869 57.779 36.3745 57.2841C36.1622 56.7892 36.0531 56.2565 36.0538 55.7183V52.468C36.0426 51.9112 36.1465 51.3579 36.359 50.8427C36.5715 50.3275 36.888 49.8614 37.289 49.4732V49.4732C38.0468 48.7091 39.0774 48.2751 40.1556 48.2659V48.1731ZM25.3799 16.0421H35.7975C37.5508 16.0658 39.2246 16.7745 40.4586 18.0154C41.7022 19.2442 42.4061 20.9138 42.4162 22.6586V34.1274C42.4162 35.8945 41.7115 37.5893 40.4572 38.8388C39.2028 40.0884 37.5015 40.7904 35.7275 40.7904H25.3799C24.4976 40.7965 23.6228 40.6287 22.8059 40.2966C21.989 39.9645 21.2461 39.4746 20.6201 38.8553C19.994 38.236 19.4972 37.4994 19.1581 36.688C18.8191 35.8765 18.6445 35.0063 18.6445 34.1274V22.7051C18.6546 20.9603 19.3586 19.2906 20.6022 18.0619C21.2233 17.4251 21.9659 16.9184 22.7864 16.5715C23.6068 16.2247 24.4886 16.0447 25.3799 16.0421V16.0421ZM14.333 9.7041H46.9608V69.9265H14.333V9.7041Z" fill="#231F20"/>
<path d="M46.8443 73.9429H14.333V94.9998H46.8443V73.9429Z" fill="#231F20"/>
<path d="M83.69 73.9429H51.1787V94.9998H83.69V73.9429Z" fill="#231F20"/>
<path fill-rule="evenodd" clip-rule="evenodd" d="M62.2261 19.2459H72.6437C73.5628 19.252 74.4425 19.6184 75.0924 20.2658C75.7423 20.9132 76.1101 21.7895 76.1162 22.7051V34.1274C76.1129 35.0501 75.7444 35.9344 75.0908 36.5883C74.4731 37.2124 73.6394 37.5778 72.7602 37.6098H62.2261C61.2989 37.6098 60.4098 37.2429 59.7542 36.5898C59.0986 35.9367 58.7303 35.051 58.7303 34.1274V22.7051C58.7623 21.8293 59.1292 20.9987 59.7557 20.3835C60.4121 19.7324 61.2998 19.3653 62.2261 19.362V19.2459ZM56.6561 51.0751C56.9757 50.7681 57.4007 50.5938 57.8446 50.5875C58.0652 50.587 58.2837 50.6298 58.4877 50.7134C58.6916 50.7971 58.877 50.92 59.0332 51.0751C59.1889 51.2307 59.3123 51.4154 59.3963 51.6185C59.4802 51.8217 59.5232 52.0394 59.5226 52.2591V55.7183C59.5232 55.938 59.4802 56.1557 59.3963 56.3588C59.3123 56.562 59.1889 56.7467 59.0332 56.9023V56.9023C58.877 57.0574 58.6916 57.1803 58.4877 57.2639C58.2837 57.3476 58.0652 57.3904 57.8446 57.3898C57.4007 57.3836 56.9757 57.2093 56.6561 56.9023V56.9023C56.5004 56.7467 56.377 56.562 56.293 56.3588C56.209 56.1557 56.1661 55.938 56.1666 55.7183V52.468C56.1661 52.2483 56.209 52.0307 56.293 51.8275C56.377 51.6243 56.5004 51.4396 56.6561 51.284V51.0751ZM57.8446 48.1731C57.3068 48.1745 56.7746 48.282 56.2787 48.4892C55.7827 48.6963 55.3327 48.9992 54.9547 49.3803V49.3803C54.1991 50.1503 53.773 51.1823 53.7662 52.2591V55.7183C53.773 56.795 54.1991 57.8271 54.9547 58.5971V58.5971C55.7277 59.3498 56.7637 59.7743 57.8446 59.7811C58.9265 59.7792 59.9644 59.354 60.7345 58.5971V58.5971C61.1171 58.2205 61.4211 57.7723 61.6291 57.2782C61.8371 56.7842 61.9449 56.254 61.9464 55.7183V52.468C61.9396 51.3913 61.5135 50.3592 60.7578 49.5892V49.5892C60.3878 49.1833 59.9387 48.8566 59.4379 48.6291C58.9371 48.4015 58.395 48.278 57.8446 48.2659V48.1731ZM72.6437 16.0421H62.2261C60.4728 16.0658 58.799 16.7745 57.565 18.0154C56.3214 19.2442 55.6174 20.9138 55.6073 22.6586V34.1274C55.6073 35.8945 56.312 37.5893 57.5664 38.8388C58.8208 40.0884 60.522 40.7904 62.296 40.7904H72.7136C74.4641 40.7753 76.1384 40.0748 77.3747 38.8402C78.6036 37.6017 79.305 35.9382 79.3324 34.197V22.7051C79.3202 20.9417 78.6116 19.254 77.3598 18.0071C76.1081 16.7601 74.4139 16.0542 72.6437 16.0421V16.0421ZM83.6905 9.7041H51.2725V69.9265H83.6905V9.7041Z" fill="#231F20"/>
<path fill-rule="evenodd" clip-rule="evenodd" d="M4.21831 0H10.4875H87.5358H93.805V6.24511V88.7549H98V95H93.805H87.5358V88.7549V6.24511H10.4875V88.7549V95H4.21831H0V88.7549H4.21831V6.24511V0Z" fill="#231F20"/>
</svg>
