<svg width="95" height="95" viewBox="0 0 95 95" fill="none" xmlns="http://www.w3.org/2000/svg">
<path fill-rule="evenodd" clip-rule="evenodd" d="M76.1718 83.067L78.4934 82.8348C78.5851 83.4925 78.8863 84.1031 79.3524 84.576C79.8566 84.9616 80.4834 85.1513 81.1168 85.11C81.7361 85.153 82.3511 84.9808 82.858 84.6224C83.051 84.5163 83.2165 84.3665 83.3414 84.1852C83.4663 84.0038 83.5472 83.7958 83.5777 83.5777C83.5901 83.3105 83.5079 83.0474 83.3456 82.8348C83.093 82.6013 82.7916 82.4268 82.4634 82.3241L80.5596 81.8133C79.5751 81.633 78.6456 81.2278 77.8434 80.6293C77.5069 80.3421 77.2355 79.9865 77.0474 79.5862C76.8592 79.1858 76.7586 78.75 76.7522 78.3077C76.746 77.6967 76.924 77.0981 77.263 76.5897C77.6236 76.0453 78.142 75.624 78.7488 75.3825C79.4864 75.0876 80.2762 74.9454 81.0704 74.9646C82.2732 74.8741 83.4684 75.2203 84.4367 75.9396C84.8151 76.2741 85.1183 76.685 85.3264 77.1452C85.5345 77.6054 85.6427 78.1044 85.6439 78.6095H83.2063C83.161 78.0964 82.9298 77.6175 82.5562 77.263C82.1086 76.9728 81.5795 76.8344 81.0472 76.8683C80.4643 76.8311 79.8852 76.986 79.3988 77.3094C79.2775 77.3901 79.1794 77.5011 79.1143 77.6314C79.0491 77.7618 79.0192 77.9068 79.0274 78.0523C79.0282 78.1906 79.0598 78.327 79.1201 78.4515C79.1803 78.5761 79.2676 78.6855 79.3756 78.772C80.0885 79.193 80.8774 79.4691 81.6972 79.5846C82.5905 79.7554 83.4571 80.0443 84.2742 80.4436C84.8218 80.7109 85.2812 81.1299 85.5975 81.6508C85.8784 82.2516 85.983 82.9198 85.8993 83.5777C85.8931 84.2622 85.6917 84.9306 85.3189 85.5047C84.9454 86.1103 84.3823 86.5755 83.717 86.828C82.8811 87.1499 81.9888 87.2999 81.0936 87.2691C79.8515 87.3562 78.6206 86.9844 77.6344 86.2243C76.7827 85.4299 76.2606 84.3444 76.1718 83.1831V83.067ZM67.164 80.165H68.9516C69.6831 80.2089 70.4171 80.1542 71.1339 80.0024C71.4057 79.918 71.6422 79.7467 71.8072 79.5149C71.9703 79.2418 72.051 78.9274 72.0394 78.6095C72.0617 78.2546 71.9451 77.9049 71.7143 77.6344C71.4805 77.3728 71.1578 77.2074 70.8089 77.1701C70.6232 77.1701 70.0428 77.1701 69.0677 77.1701H67.164V80.165ZM64.8424 87.1298V74.9878H69.9267C70.8667 74.9477 71.8071 75.0574 72.7126 75.3128C73.2899 75.5276 73.7798 75.9276 74.1056 76.4504C74.4525 77.0153 74.6298 77.6681 74.6163 78.3309C74.6728 79.175 74.398 80.0078 73.8502 80.6525C73.2237 81.2746 72.4058 81.6672 71.5286 81.7669C72.0038 82.0309 72.4346 82.3677 72.8055 82.7652C73.3308 83.3557 73.7901 84.0019 74.1752 84.6921L75.6378 87.0137H72.6198L70.8786 84.3903C70.5026 83.7751 70.0754 83.1926 69.6017 82.6491C69.4113 82.4233 69.1622 82.2546 68.882 82.1615C68.4894 82.0519 68.082 82.0049 67.6747 82.0222H67.164V87.0137L64.8424 87.1298ZM53.838 81.14C53.7624 82.2516 54.1016 83.3517 54.7898 84.2278C55.0922 84.5578 55.4598 84.8214 55.8695 85.0017C56.2792 85.182 56.7219 85.2751 57.1695 85.2751C57.6171 85.2751 58.0598 85.182 58.4694 85.0017C58.8791 84.8214 59.2468 84.5578 59.5491 84.2278C60.1486 83.3052 60.4677 82.2286 60.4677 81.1284C60.4677 80.0282 60.1486 78.9516 59.5491 78.0291C59.2357 77.7097 58.8618 77.456 58.4493 77.2828C58.0367 77.1096 57.5937 77.0204 57.1463 77.0204C56.6988 77.0204 56.2558 77.1096 55.8433 77.2828C55.4307 77.456 55.0568 77.7097 54.7434 78.0291C54.0863 78.8615 53.734 79.8938 53.7451 80.9543L53.838 81.14ZM51.3539 81.14C51.3219 80.0832 51.5117 79.0313 51.9111 78.0523C52.1724 77.436 52.5509 76.8762 53.0254 76.404C53.4614 75.9512 53.982 75.5884 54.5577 75.336C55.3754 75.0049 56.2528 74.8468 57.1347 74.8717C57.9167 74.8343 58.698 74.9594 59.4292 75.2391C60.1605 75.5188 60.8258 75.9471 61.3832 76.4968C62.4056 77.7977 62.9613 79.4043 62.9613 81.0588C62.9613 82.7133 62.4056 84.3199 61.3832 85.6207C60.2235 86.6649 58.7183 87.2426 57.1579 87.2426C55.5974 87.2426 54.0922 86.6649 52.9326 85.6207C52.3596 85.0107 51.9162 84.291 51.6289 83.505C51.3416 82.7189 51.2165 81.8829 51.261 81.0472L51.3539 81.14ZM44.6444 87.0369V77.0076H41.0227V74.9878H50.4949V77.0076H46.9893V86.944L44.6444 87.0369ZM37.2385 87.0369V74.9878H39.5601V86.944L37.2385 87.0369ZM25.6305 83.1598L27.9521 82.9277C28.0243 83.5912 28.3286 84.2078 28.8111 84.6689C29.3081 85.051 29.9265 85.2406 30.5523 85.2028C31.1788 85.2456 31.8011 85.0736 32.3167 84.7153C32.4919 84.5808 32.635 84.4088 32.7354 84.2121C32.8358 84.0153 32.891 83.7986 32.8971 83.5777C32.9009 83.3079 32.8106 83.0452 32.6417 82.8348C32.3988 82.6004 32.1047 82.4256 31.7827 82.3241L29.8558 81.8133C28.8744 81.623 27.947 81.2188 27.1395 80.6293C26.8064 80.3393 26.5374 79.9831 26.3495 79.5834C26.1617 79.1837 26.0591 78.7492 26.0484 78.3077C25.994 77.6659 26.1387 77.023 26.4627 76.4663C26.7867 75.9097 27.2743 75.4664 27.8592 75.1967C28.5976 74.9043 29.3869 74.7622 30.1808 74.7788C31.3908 74.689 32.5931 75.0349 33.5704 75.7539C33.9538 76.087 34.2634 76.4966 34.4793 76.9564C34.6952 77.4161 34.8126 77.9159 34.824 78.4238H32.5024C32.4489 77.9081 32.2096 77.4295 31.8292 77.0772C31.383 76.7839 30.8528 76.6453 30.3201 76.6826C29.7445 76.6453 29.1728 76.8004 28.695 77.1237C28.571 77.2033 28.4696 77.3134 28.4005 77.4435C28.3314 77.5736 28.2969 77.7193 28.3003 77.8666C28.3055 78.0065 28.3415 78.1435 28.4057 78.2679C28.4699 78.3923 28.5608 78.501 28.6718 78.5863C29.3494 78.9933 30.0976 79.2689 30.8773 79.3988C31.7788 79.5666 32.6535 79.8556 33.4775 80.2578C34.0209 80.5314 34.4787 80.949 34.8008 81.4651C35.1221 82.047 35.2824 82.7042 35.2652 83.3688C35.2671 84.0511 35.0738 84.7197 34.708 85.2957C34.3197 85.8974 33.7507 86.3607 33.0828 86.619C32.255 86.9409 31.3703 87.091 30.4827 87.0601C29.234 87.1422 27.9975 86.7713 27.0002 86.0154C26.1691 85.2441 25.6488 84.1954 25.5376 83.067L25.6305 83.1598ZM21.382 86.944V74.9878H23.7036V86.944H21.382ZM13.3724 86.944L9.10069 74.9878H11.7241L14.7654 83.8331L17.6674 74.9878H20.2444L15.9958 86.944H13.3724ZM60.826 44.4587C60.7551 43.5865 60.9237 42.7116 61.3135 41.9282C61.5789 41.419 61.915 40.9501 62.3118 40.5352L62.6136 40.2798C63.1299 39.858 63.7255 39.5439 64.3651 39.3561C65.0048 39.1682 65.6756 39.1104 66.3379 39.186C67.0003 39.2617 67.6408 39.4692 68.2216 39.7965C68.8025 40.1237 69.3119 40.5639 69.7198 41.0913C70.1277 41.6186 70.4258 42.2223 70.5966 42.8667C70.7673 43.5111 70.8073 44.1832 70.714 44.8433C70.6208 45.5035 70.3963 46.1382 70.0537 46.7101C69.7111 47.2821 69.2574 47.7796 68.7195 48.1733C67.9188 48.7545 66.9678 49.093 65.98 49.1483C65.2811 49.1606 64.5868 49.0344 63.937 48.7769C62.8386 48.3191 61.9295 47.5001 61.36 46.4553C61.0342 45.8383 60.8517 45.1559 60.826 44.4587V44.4587ZM24.1447 44.1105C24.148 43.1439 24.4319 42.1992 24.9619 41.3909C25.4918 40.5826 26.2451 39.9456 27.1301 39.5571C28.0151 39.1687 28.9939 39.0456 29.9476 39.2027C30.9013 39.3598 31.7888 39.7905 32.5024 40.4423C32.6417 40.4423 32.6417 40.4423 32.7578 40.6745C33.1604 41.0743 33.4835 41.547 33.7097 42.0675C34.1878 43.0396 34.311 44.1483 34.0579 45.2016C33.8464 46.1191 33.3853 46.9603 32.7257 47.6322C32.0661 48.3041 31.2336 48.7806 30.3201 49.009C29.5703 49.1833 28.7904 49.1817 28.0413 49.0045C27.2922 48.8273 26.5942 48.4793 26.002 47.9875L25.7466 47.7554C25.6579 47.6901 25.5797 47.6119 25.5144 47.5232C24.6402 46.6014 24.1503 45.3809 24.1447 44.1105V44.1105ZM35.7527 17.3656H58.9687C59.5259 17.3656 59.9206 17.9228 60.176 18.3174C61.2302 20.5673 62.1073 22.896 62.7994 25.2823L65.7942 34.1508H29.1826C29.1826 33.9651 29.1826 33.8025 29.3451 33.6168L29.5308 33.0364C29.6391 32.6495 29.7552 32.278 29.879 31.922L32.0381 25.259C32.2703 24.5161 32.5024 23.8197 32.7346 23.0535C33.1961 21.4133 33.8101 19.82 34.5687 18.2942C34.8241 17.946 35.2419 17.3888 35.8223 17.3888L35.7527 17.3656ZM22.9839 34.2204C22.08 34.1006 21.1635 34.3153 20.4069 34.824L20.2212 34.9866C20.0819 34.9866 20.1051 34.9866 20.0122 35.1955C19.8772 35.3351 19.7602 35.4911 19.664 35.6598C19.4475 36.0361 19.3204 36.4571 19.2925 36.8903V51.4467C19.3453 52.1488 19.662 52.8049 20.1788 53.2829C20.6957 53.761 21.3744 54.0257 22.0784 54.0237V56.8096C22.0776 57.2038 22.1578 57.594 22.3139 57.9559C22.4701 58.3179 22.6989 58.6439 22.9862 58.9138C23.2735 59.1837 23.6132 59.3917 23.9842 59.525C24.3552 59.6582 24.7496 59.7139 25.143 59.6884H30.3201C30.7718 59.6937 31.2205 59.615 31.6435 59.4563C32.3491 59.1428 32.9063 58.5689 33.1989 57.8544C33.456 56.5947 33.5342 55.3052 33.4311 54.0237H61.5689V57.0882C61.6035 57.47 61.714 57.8409 61.8939 58.1794C61.973 58.3347 62.0663 58.4823 62.1725 58.6205L62.335 58.783C62.6325 59.0943 62.9944 59.3366 63.3955 59.493C63.7966 59.6494 64.227 59.7161 64.6567 59.6884H69.8803C70.2819 59.7084 70.6832 59.644 71.0584 59.4994C71.4336 59.3547 71.7744 59.1331 72.0587 58.8488C72.343 58.5645 72.5647 58.2237 72.7093 57.8485C72.8539 57.4733 72.9183 57.072 72.8983 56.6703V54.0005C73.6455 54.0005 74.3625 53.7053 74.893 53.1791C75.4235 52.653 75.7246 51.9385 75.7307 51.1914V37.1457C75.7407 36.7007 75.6473 36.2594 75.458 35.8566C75.2687 35.4538 74.9885 35.1003 74.6395 34.824C73.7573 34.174 73.3627 34.2204 71.9001 34.2204L68.6034 24.2375C68.0462 22.6356 66.8157 18.48 66.0264 16.8781C65.3549 15.1176 64.1442 13.6144 62.5672 12.5831C61.4989 11.9492 60.2806 11.6125 59.0384 11.608H35.8223C34.6523 11.6545 33.5118 11.9894 32.5024 12.5831C30.9436 13.6283 29.744 15.1278 29.0665 16.8781C28.9272 17.1334 28.8343 17.412 28.7182 17.6674L23.425 33.3847C23.216 33.64 23.216 33.9651 23.0535 34.2436L22.9839 34.2204ZM0 0H95V95H0V0Z" fill="#231F20"/>
</svg>
