<svg width="109" height="100" viewBox="0 0 109 100" fill="none" xmlns="http://www.w3.org/2000/svg">
<g clip-path="url(#clip0_72_136)">
<path fill-rule="evenodd" clip-rule="evenodd" d="M20.3262 20.5279V34.2131H25.5724C28.118 34.3641 30.6714 34.1083 33.1368 33.4555C34.3673 32.9856 35.4121 32.1279 36.1137 31.0117C36.854 29.9168 37.2375 28.6192 37.2118 27.2972C37.2658 25.7239 36.7255 24.1881 35.6989 22.9961C34.7015 21.8577 33.3373 21.1054 31.8435 20.87C29.5539 20.5781 27.2452 20.4637 24.938 20.5279H20.3262ZM35.9185 90.9091H33.1856V80.6452C32.1738 81.5907 30.9655 82.3001 29.6474 82.7224V80.2786C30.532 79.9745 31.3575 79.5198 32.0875 78.9345C32.8693 78.3633 33.4638 77.5722 33.7956 76.6618H36.0161L35.9185 90.9091ZM22.5467 87.0968V84.3597H27.9393V87.0968H22.5467ZM10.6877 90.9091V76.5885H20.4482V79.0323H13.5915V82.4291H19.5209V84.8729H13.5915V90.9091H10.6877ZM10.6877 60.1417V12.4878H26.1092C29.922 12.3259 33.7412 12.5634 37.5046 13.1965C40.254 13.9254 42.6729 15.572 44.3613 17.8641C46.2889 20.565 47.2594 23.8337 47.1187 27.1505C47.1897 29.6868 46.6454 32.2025 45.5326 34.4819C44.581 36.3643 43.1918 37.9903 41.482 39.2229C40.0254 40.3138 38.3663 41.103 36.6017 41.5445C33.3125 42.0908 29.9794 42.3281 26.6461 42.2532H20.3262V60.2151L10.6877 60.1417ZM45.5814 100H0V0H85.4041V42.0821H64.6631C63.6003 42.0827 62.542 42.2224 61.5153 42.4976C60.4778 42.7611 59.4835 43.1726 58.5628 43.7195L58.2944 43.8905C57.0227 44.6942 55.9135 45.7305 55.0246 46.9453C54.2927 47.9987 53.648 49.1102 53.0969 50.2688V50.2688C52.9458 50.532 52.8231 50.8105 52.7309 51.0997V51.3196C52.6363 51.5149 52.5626 51.7197 52.5113 51.9306L47.0942 67.5464C46.1991 67.814 45.3685 68.2632 44.6541 68.8661L44.2881 69.1593C43.9784 69.4024 43.707 69.6908 43.4829 70.0147C43.4829 70.0147 43.4829 70.0147 43.4829 70.0147C43.2341 70.3081 43.0058 70.6184 42.7996 70.9433C42.5069 71.4681 42.2775 72.026 42.1164 72.6051C41.936 73.2082 41.8375 73.8329 41.8236 74.4624V90.738C41.8388 91.7104 42.0522 92.6693 42.4509 93.556C42.8495 94.4427 43.4249 95.2385 44.1417 95.8944L44.9225 96.5298V96.7253C44.8876 97.8531 45.1131 98.9738 45.5814 100V100Z" fill="#231F20"/>
<path fill-rule="evenodd" clip-rule="evenodd" d="M92.3827 83.0888C92.3029 82.11 92.4972 81.1283 92.944 80.254C93.2454 79.6914 93.6231 79.1733 94.0664 78.7144L94.408 78.4212C95.4169 77.6046 96.6734 77.1564 97.9706 77.1504C99.1469 77.1518 100.292 77.5265 101.243 78.2207C102.193 78.9149 102.899 79.893 103.26 81.0143C103.62 82.1356 103.617 83.3426 103.25 84.4617C102.882 85.5809 102.17 86.5547 101.216 87.2433C100.328 87.8998 99.2678 88.282 98.1658 88.343C97.382 88.3498 96.6039 88.2089 95.8721 87.9275C94.6381 87.4051 93.6214 86.4731 92.9928 85.2882C92.6353 84.607 92.4273 83.8571 92.3827 83.0888V83.0888ZM51.462 82.7222C51.4622 81.6439 51.7748 80.5888 52.3619 79.685C52.949 78.7811 53.7854 78.0672 54.7696 77.63C55.7538 77.1928 56.8436 77.0509 57.9067 77.2218C58.9698 77.3926 59.9606 77.8686 60.7588 78.5922C60.9052 78.7389 60.9052 78.5922 61.0516 78.8611C61.4918 79.3115 61.8546 79.8317 62.1253 80.4006C62.6365 81.5084 62.7653 82.755 62.4913 83.9441C62.221 84.9294 61.691 85.8236 60.9568 86.533C60.2227 87.2425 59.3115 87.741 58.3187 87.9764C57.4743 88.186 56.5924 88.1935 55.7445 87.9982C54.8966 87.8029 54.1066 87.4103 53.4385 86.8523L53.1701 86.5834L52.9016 86.3391C51.9849 85.3185 51.4728 83.9972 51.462 82.6245V82.7222ZM64.4922 52.8347H90.5038C91.1383 52.8347 91.5775 53.4456 91.8703 53.8855C93.0414 56.4287 94.0123 59.0598 94.774 61.7545L98.117 71.6763H57.0742C57.1282 71.4693 57.1934 71.2653 57.2695 71.0654L57.4647 70.43C57.6111 69.9901 57.7331 69.5746 57.8551 69.1836L60.2952 61.7301C60.588 60.8992 60.832 60.1172 61.1004 59.2863C61.5751 57.3843 62.2372 55.5342 63.0769 53.7633C63.443 53.3479 63.8578 52.7369 64.4922 52.7369V52.8347ZM50.2419 71.6763C49.2163 71.5114 48.1658 71.7287 47.2894 72.2872L47.0698 72.4828C46.9766 72.5514 46.8943 72.6338 46.8258 72.7271C46.684 72.889 46.5536 73.0605 46.4353 73.2403C46.2051 73.6617 46.0717 74.1293 46.0449 74.6089V90.8845C46.1006 91.6689 46.4515 92.403 47.0267 92.9383C47.602 93.4735 48.3586 93.7702 49.1439 93.7682V96.774C49.1395 97.2157 49.2263 97.6534 49.399 98.0598C49.5717 98.4662 49.8265 98.8324 50.1474 99.1353C50.4682 99.4383 50.8482 99.6715 51.2634 99.8203C51.6786 99.9691 52.1201 100.03 52.56 99.9999H58.3431C58.8442 100.01 59.3421 99.9182 59.8072 99.731C60.2032 99.5713 60.5629 99.3331 60.8648 99.0307C61.1667 98.7284 61.4045 98.3681 61.5641 97.9715C61.8339 96.5548 61.916 95.1086 61.8081 93.6704H93.2368V97.0917C93.2701 97.5206 93.3949 97.9373 93.6028 98.3136C93.6858 98.4849 93.7838 98.6485 93.8956 98.8024L94.0908 98.9735C94.3988 99.3117 94.7765 99.5787 95.1979 99.756C95.6193 99.9332 96.0742 100.016 96.5309 99.9999H102.485C102.934 100.025 103.382 99.9543 103.802 99.7936C104.222 99.6328 104.603 99.3853 104.921 99.067C105.239 98.7488 105.486 98.3671 105.646 97.9467C105.807 97.5263 105.877 97.0768 105.852 96.6274V93.6704C106.273 93.6673 106.689 93.5804 107.076 93.4147C107.463 93.249 107.813 93.008 108.106 92.7055C108.399 92.403 108.629 92.0452 108.782 91.6528C108.936 91.2605 109.01 90.8415 109 90.4202V74.731C108.993 74.2581 108.879 73.7929 108.668 73.3699C108.457 72.9469 108.153 72.5768 107.78 72.2872C106.828 71.5541 106.365 71.603 104.754 71.603L101.045 60.4593C100.435 58.6509 99.0686 54.0077 98.1658 52.2237C97.4379 50.2223 96.0861 48.5086 94.3104 47.3361C93.1222 46.6551 91.7753 46.3009 90.4062 46.3097H64.5898C63.2131 46.3013 61.8583 46.6552 60.6612 47.3361C58.9051 48.5238 57.5652 50.2332 56.8302 52.2237C56.6855 52.5102 56.5551 52.8038 56.4398 53.1035L50.5591 70.6255C50.4352 70.9368 50.3292 71.255 50.2419 71.5786V71.6763Z" fill="#231F20"/>
</g>
<defs>
<clipPath id="clip0_72_136">
<rect width="109" height="100" fill="white"/>
</clipPath>
</defs>
</svg>
