<svg width="105" height="100" viewBox="0 0 105 100" fill="none" xmlns="http://www.w3.org/2000/svg">
<g clip-path="url(#clip0_72_143)">
<path fill-rule="evenodd" clip-rule="evenodd" d="M64.2222 80.9385C64.1611 80.1708 64.3134 79.4012 64.6622 78.7146C64.8989 78.2694 65.195 77.8583 65.5423 77.4927L65.8112 77.2728C66.607 76.6287 67.5987 76.2752 68.6226 76.2708C69.7897 76.2481 70.918 76.6898 71.7593 77.4987C72.6006 78.3076 73.086 79.4175 73.1087 80.5841C73.1314 81.7507 72.6895 82.8786 71.8803 83.7196C71.0711 84.5606 69.9608 85.0458 68.7938 85.0685C68.1756 85.084 67.5605 84.976 66.9847 84.7508C66.0059 84.3474 65.2008 83.6118 64.7111 82.6736C64.4223 82.1382 64.2554 81.5458 64.2222 80.9385V80.9385ZM31.9276 80.6452C31.9377 79.8005 32.1909 78.9767 32.6569 78.272C33.123 77.5673 33.7821 77.0117 34.5556 76.6715C35.329 76.3313 36.1841 76.2209 37.0187 76.3535C37.8532 76.4862 38.632 76.8562 39.2618 77.4194L39.4573 77.6149C39.8188 77.9631 40.1094 78.3781 40.313 78.8368C40.7135 79.6995 40.8167 80.6707 40.6063 81.5983C40.4232 82.4045 40.0201 83.1442 39.4419 83.7352C38.8636 84.3262 38.1327 84.7454 37.3304 84.9463C36.6701 85.1056 35.9816 85.1091 35.3197 84.9564C34.6577 84.8037 34.0405 84.499 33.5167 84.0665L33.2967 83.871C33.2131 83.8164 33.1456 83.7404 33.1011 83.6511C32.3411 82.8352 31.9213 81.76 31.9276 80.6452V80.6452ZM42.2198 57.1115H62.7309C63.2443 57.1115 63.5865 57.6002 63.8066 57.9424C64.7133 59.9459 65.4493 62.0224 66.0068 64.1496L68.6471 71.9453H36.3526C36.3988 71.7868 36.456 71.6316 36.5237 71.481C36.5567 71.2738 36.6057 71.0696 36.6704 70.87C36.6704 70.5279 36.8659 70.2102 36.9882 69.8925L38.8706 64.0274L39.5062 62.0968C39.9035 60.6492 40.4355 59.2419 41.0953 57.8935C41.3153 57.6002 41.7065 57.1115 42.2198 57.1115V57.1115ZM30.9742 71.9453C30.1662 71.8147 29.3385 71.9889 28.6517 72.4341L28.4562 72.6051C28.3339 72.6051 28.4562 72.6051 28.285 72.7762C28.1139 72.9473 28.065 73.0206 27.9672 73.1672C27.7757 73.5034 27.6668 73.8804 27.6494 74.2669V87.0724C27.6868 87.6948 27.9608 88.2793 28.4153 88.7064C28.8698 89.1334 29.4704 89.3707 30.0941 89.3695V91.8133C30.092 92.1582 30.163 92.4996 30.3023 92.8151C30.4416 93.1305 30.6461 93.413 30.9024 93.6438C31.1588 93.8746 31.461 94.0486 31.7894 94.1543C32.1178 94.26 32.4648 94.2951 32.8077 94.2571H37.3549C37.7547 94.2641 38.1524 94.1978 38.5283 94.0616C38.8401 93.936 39.1225 93.7474 39.3581 93.5078C39.5936 93.2681 39.7772 92.9824 39.8974 92.6687C40.1127 91.5583 40.1785 90.4241 40.0929 89.2962H64.9067V91.9844C64.9342 92.3164 65.0255 92.64 65.1756 92.9375C65.2425 93.0764 65.3245 93.2075 65.4201 93.3285L65.5668 93.4751C65.8281 93.7446 66.1449 93.9542 66.4953 94.0892C66.8456 94.2242 67.2212 94.2815 67.5959 94.2571H72.1919C72.5481 94.2906 72.9072 94.2455 73.2441 94.125C73.5809 94.0046 73.8872 93.8117 74.1413 93.56C74.3954 93.3083 74.5912 93.0039 74.7148 92.6684C74.8384 92.3328 74.8868 91.9742 74.8566 91.6178V89.174C75.505 89.174 76.1268 88.9166 76.5853 88.4583C77.0438 88 77.3013 87.3784 77.3013 86.7303V74.438C77.3013 74.0586 77.213 73.6844 77.0432 73.3451C76.8735 73.0057 76.6271 72.7106 76.3234 72.4829C75.5656 71.9209 75.1989 71.9453 73.8787 71.9453L70.9696 63.1721C70.4806 61.7547 69.3805 58.089 68.696 56.696C68.099 55.1384 67.0307 53.8057 65.6401 52.8837C64.7003 52.3561 63.6376 52.0863 62.5598 52.1017H42.2932C41.209 52.0975 40.1412 52.3665 39.1884 52.8837C37.821 53.808 36.7712 55.1304 36.1814 56.6716C36.0592 56.8915 35.9614 57.1359 35.8636 57.3559L31.2187 71.1877C31.1453 71.4321 31.0231 71.7009 30.9742 71.9453V71.9453Z" fill="#231F20"/>
<path d="M105 95.064H0V100H105V95.064Z" fill="#231F20"/>
<path fill-rule="evenodd" clip-rule="evenodd" d="M64.2222 28.8614C64.1585 28.0936 64.311 27.3233 64.6623 26.6376C64.8986 26.1847 65.1946 25.7655 65.5424 25.3912C65.6424 25.3317 65.7331 25.2575 65.8113 25.1713C66.6126 24.5372 67.6008 24.185 68.6227 24.1693C69.5527 24.1708 70.4584 24.4668 71.2097 25.0148C71.961 25.5628 72.5193 26.3347 72.8044 27.2196C73.0895 28.1045 73.0869 29.057 72.7968 29.9403C72.5066 30.8236 71.944 31.5923 71.1896 32.1361C70.4736 32.6496 69.625 32.9465 68.7449 32.9914C68.1242 33.0108 67.5067 32.894 66.9359 32.6493C65.9512 32.2552 65.1433 31.517 64.6623 30.5721C64.3732 30.0457 64.2061 29.4611 64.1733 28.8614H64.2222ZM31.8788 28.5682C31.8843 27.7214 32.1341 26.8943 32.5983 26.186C33.0625 25.4777 33.7213 24.9184 34.4957 24.5752C35.2701 24.232 36.1271 24.1195 36.9639 24.2513C37.8006 24.383 38.5816 24.7534 39.2129 25.3179L39.4085 25.5134C39.7647 25.8661 40.0545 26.28 40.2641 26.7353C40.6666 27.6062 40.7697 28.5857 40.5575 29.5212C40.3668 30.3239 39.9612 31.0596 39.3841 31.6494C38.807 32.2392 38.0802 32.6609 37.2816 32.8692C36.619 33.0178 35.9312 33.0135 35.2704 32.8569C34.6096 32.7002 33.9932 32.3952 33.4679 31.965L33.3212 31.7695C33.2376 31.7149 33.1701 31.639 33.1256 31.5496C32.356 30.7478 31.9268 29.6793 31.9277 28.5682H31.8788ZM42.171 5.01H62.6821C63.1955 5.01 63.5377 5.49876 63.7577 5.84089C64.6774 7.84444 65.4296 9.9206 66.0069 12.0481L68.6472 19.8683H36.3526C36.3987 19.7017 36.4559 19.5384 36.5238 19.3795C36.5238 19.2084 36.5238 19.0618 36.6704 18.8663C36.8171 18.6708 36.866 18.2065 36.9882 17.9132L38.8707 12.0481L39.5063 10.0931C39.9077 8.6468 40.4395 7.23993 41.0953 5.88976C41.3154 5.52319 41.7065 5.01 42.2199 5.01H42.171ZM30.9254 19.8683C30.1174 19.7377 29.2897 19.9119 28.6029 20.357L28.4073 20.5036C28.3385 20.5476 28.2802 20.6059 28.2362 20.6747L27.9184 21.0902C27.7269 21.4264 27.6179 21.8033 27.6006 22.1899V34.9953C27.644 35.6134 27.9206 36.1919 28.3744 36.6138C28.8283 37.0357 29.4255 37.2696 30.0453 37.2681V39.7119C30.0432 40.0567 30.1141 40.3981 30.2535 40.7136C30.3928 41.0291 30.5973 41.3115 30.8536 41.5423C31.1099 41.7732 31.4122 41.9471 31.7406 42.0529C32.069 42.1586 32.416 42.1936 32.7589 42.1557H37.3061C37.7085 42.1679 38.1088 42.0929 38.4795 41.9357C38.7912 41.8101 39.0737 41.6215 39.3093 41.3819C39.5448 41.1422 39.7284 40.8565 39.8485 40.5427C40.0656 39.4326 40.1314 38.2981 40.0441 37.1703H64.9068V39.8585C64.9342 40.1905 65.0256 40.5141 65.1757 40.8116C65.2426 40.9505 65.3246 41.0816 65.4201 41.2026L65.5668 41.3492C65.826 41.6231 66.1418 41.8372 66.4923 41.9765C66.8427 42.1158 67.2194 42.1769 67.5959 42.1557H72.192C72.5504 42.1897 72.9119 42.1441 73.2506 42.0223C73.5894 41.9004 73.897 41.7053 74.1516 41.4508C74.4062 41.1963 74.6014 40.8888 74.7232 40.5502C74.8451 40.2115 74.8907 39.8502 74.8567 39.4919V37.1703C75.5051 37.1703 76.1269 36.9128 76.5854 36.4545C77.0438 35.9962 77.3014 35.3747 77.3014 34.7265V22.3365C77.2976 21.9612 77.2075 21.5919 77.0379 21.2571C76.8683 20.9223 76.6239 20.631 76.3235 20.4059C75.5657 19.8194 75.199 19.8683 73.8788 19.8683L71.0674 11.095C70.5785 9.6532 69.4783 6.01195 68.7938 4.59455C68.2026 3.04004 67.1325 1.71357 65.738 0.806672C64.8005 0.270505 63.7376 -0.00775598 62.6576 0.000220577H42.2932C41.1806 -0.0216672 40.0826 0.256941 39.1151 0.806672C37.7712 1.72744 36.7462 3.04238 36.1815 4.57011C36.0593 4.79005 35.9615 5.03443 35.8637 5.25438L31.2187 19.1107C31.1227 19.3583 31.041 19.6112 30.9743 19.8683H30.9254Z" fill="#231F20"/>
<path d="M105 42.9863H0V47.9228H105V42.9863Z" fill="#231F20"/>
</g>
<defs>
<clipPath id="clip0_72_143">
<rect width="105" height="100" fill="white"/>
</clipPath>
</defs>
</svg>
