<svg width="92" height="100" viewBox="0 0 92 100" fill="none" xmlns="http://www.w3.org/2000/svg">
<path fill-rule="evenodd" clip-rule="evenodd" d="M86.349 7.6002V93.1329H71.7342V99.9511H65.2793V93.1818H26.7938V100H20.2415V93.1818H5.62669V7.64907H0V0H92V7.6002H86.349ZM25.2592 13.4164H66.6677C67.4722 13.4065 68.2705 13.5586 69.0154 13.8636C69.7602 14.1687 70.4366 14.6205 71.0043 15.1924C71.5721 15.7644 72.0198 16.4447 72.3208 17.1932C72.6219 17.9418 72.7703 18.7433 72.7572 19.5503V60.2151C72.7572 61.8117 72.1267 63.3434 71.0037 64.4747C69.8806 65.606 68.3566 66.2448 66.7652 66.2512H25.3566C24.5593 66.2609 23.7679 66.1121 23.0281 65.8134C22.2884 65.5147 21.6149 65.072 21.0465 64.5108C20.4781 63.9497 20.0261 63.2812 19.7165 62.5439C19.4069 61.8066 19.2459 61.0151 19.2428 60.2151V19.5503C19.2331 18.7504 19.3814 17.9564 19.6792 17.2142C19.9769 16.472 20.4182 15.7963 20.9775 15.226C21.5368 14.6558 22.2031 14.2023 22.938 13.8917C23.6729 13.5811 24.4618 13.4196 25.2592 13.4164V13.4164Z" fill="#231F20"/>
<path fill-rule="evenodd" clip-rule="evenodd" d="M38.0959 35.4106C38.0959 35.8994 38.0959 36.4126 38.0959 36.9013C38.0959 37.7566 38.4612 37.4634 38.4856 37.9766C38.1454 38.1268 37.8599 38.3789 37.668 38.6982C37.4761 39.0176 37.3874 39.3886 37.4138 39.7606C37.4344 40.2031 37.4832 40.6439 37.56 41.0802C37.7061 42.0333 37.8036 43.2552 38.8266 43.6462C39.1676 43.7684 39.192 43.6462 39.3381 43.8906C39.5657 45.0231 40.0398 46.0912 40.7265 47.0186C41.6034 48.0206 41.4329 47.0186 41.4329 49.8779C41.4329 50.1467 41.238 50.1222 40.7265 50.2444L34.8075 51.9306C33.7464 52.2915 32.8262 52.9799 32.1787 53.8973C31.5312 54.8147 31.1895 55.9141 31.2026 57.0382V60.1418C31.1895 60.9284 31.4868 61.6883 32.0297 62.2559C32.5727 62.8235 33.3173 63.1529 34.1012 63.1721H58.1181C58.8805 63.122 59.5943 62.7792 60.1114 62.2149C60.6285 61.6506 60.9091 60.9082 60.8949 60.1418C61.24 57.9442 60.8275 55.6942 59.7257 53.7635C58.1912 51.8085 56.3643 51.7351 53.8067 50.9776L50.8594 50.1467C50.6646 50.1467 50.5671 50.1467 50.5671 49.8779C50.5671 46.9209 50.4453 48.0695 51.2248 47.0431C51.9153 46.1392 52.4053 45.0977 52.6619 43.9883C52.8811 43.6462 53.8798 43.8172 54.1965 42.4976L54.5862 39.785C54.5728 39.4119 54.4594 39.0492 54.2579 38.7353C54.0565 38.4214 53.7744 38.1677 53.4414 38.001C53.6606 37.6833 53.8067 37.7566 53.8311 37.219C53.8311 34.7752 53.4414 36.1926 54.9759 34.6286C55.4612 34.1273 55.8424 33.5344 56.0974 32.8841C56.3525 32.2339 56.4763 31.5393 56.4618 30.8407C56.4618 30.0343 55.0734 29.8632 54.026 29.5699C48.6429 28.0304 49.4954 25.9531 45.6955 25.9531C44.9484 25.99 44.2212 26.208 43.5764 26.5885C41.9591 27.8733 40.0925 28.8055 38.0959 29.3256C36.1716 29.9365 35.0024 29.5211 35.6601 32.087C36.0292 33.4361 36.9013 34.5911 38.0959 35.3129V35.4106ZM44.2828 30.5719C45.1353 30.5719 45.6468 30.5719 45.9148 29.3989C46.1827 29.5944 46.134 29.5699 46.2558 29.9121L46.5237 30.4986C46.9185 30.4896 47.3125 30.539 47.6929 30.6452L46.8647 31.525C46.8647 31.8671 46.9865 32.307 47.0839 32.6736C46.6942 32.6736 46.2071 32.1604 45.9878 32.1604C45.7686 32.1604 45.2571 32.6002 44.9161 32.6736C44.9161 31.6716 45.4033 31.7694 44.6969 31.0851C43.9905 30.4008 44.4289 30.9629 44.2828 30.6696V30.5719ZM39.874 35.4595H52.053V37.1701H39.874V35.4595ZM52.4183 42.0088C51.785 42.0088 51.5902 42.0088 51.2735 42.3265C51.0751 42.6912 50.9432 43.0884 50.8838 43.4996C50.8035 44.2633 50.5221 44.9918 50.0683 45.6102C49.6145 46.2287 49.0048 46.7148 48.3018 47.0186C47.6371 47.4944 46.8409 47.7501 46.0244 47.7501C45.2078 47.7501 44.4116 47.4944 43.7469 47.0186C41.3111 45.8212 41.4816 44.8192 40.8727 42.6687C40.6535 41.8622 40.0932 41.9844 39.4843 41.9844C39.4843 41.2024 39.1676 40.4448 39.1676 39.5406C39.1676 39.2474 39.9714 39.5406 40.1906 38.7586C40.5924 38.8809 40.9835 39.0362 41.3598 39.2229C41.7746 39.3832 42.1974 39.5219 42.6264 39.6384C45.4454 40.4468 48.4559 40.257 51.1517 39.1007L51.7607 38.8564C52.126 39.5651 52.2235 39.2718 52.8324 39.5651L52.4183 42.0088ZM43.211 48.8759C43.9574 49.2655 44.7779 49.491 45.6179 49.5373C46.458 49.5837 47.2982 49.4498 48.0826 49.1447C48.2828 49.0312 48.4953 48.941 48.7159 48.8759C48.7159 50.4888 48.9595 49.9023 47.6442 51.3197C47.1049 51.9189 46.5272 52.4822 45.9148 53.0059C45.3081 52.4759 44.7308 51.913 44.1854 51.3197L43.5764 50.7087C43.0649 50.1222 43.211 50.1956 43.211 48.8759ZM43.9661 61.3881C44.6583 60.6008 45.4073 59.8657 46.2071 59.1887L52.8081 52.5172C53.5147 52.7803 54.2392 52.9926 54.9759 53.1525C54.7323 53.5191 48.0583 60.1174 47.2057 60.9727C46.8891 61.3148 46.9622 61.3881 46.3776 61.3881H43.9661Z" fill="#231F20"/>
</svg>
