<svg width="73" height="73" viewBox="0 0 73 73" fill="none" xmlns="http://www.w3.org/2000/svg">
<g clip-path="url(#clip0_72_396)">
<path fill-rule="evenodd" clip-rule="evenodd" d="M9.8117 40.8652V42.642C6.28496 42.642 5.82649 42.2155 5.82649 45.6446C5.82649 47.9366 7.80146 47.4214 9.8117 47.4214V49.8555C6.28496 49.8555 5.82649 49.5001 5.82649 52.8581C5.82649 55.1857 7.69566 54.7237 9.8117 54.7237V56.5004C4.7332 56.5004 5.54435 56.5004 1.68257 60.3204C1.15356 60.8357 -0.504009 62.0971 0.677448 63.3941C1.27699 64.0693 3.3754 63.785 4.98007 63.785V69.9503C4.98007 72.9707 9.95277 73.6992 9.95277 69.2218V64.0871H41.3231V69.8081C41.2654 70.1514 41.2788 70.503 41.3626 70.8408C41.4463 71.1786 41.5985 71.4953 41.8096 71.7709C42.0208 72.0466 42.2862 72.2752 42.5893 72.4424C42.8924 72.6096 43.2266 72.7118 43.5708 72.7426C43.915 72.7733 44.2618 72.7319 44.5894 72.6211C44.9169 72.5102 45.2182 72.3322 45.4741 72.0983C45.7301 71.8644 45.9352 71.5796 46.0767 71.2619C46.2181 70.9442 46.2927 70.6005 46.2958 70.2523V64.0871C48.694 64.0871 50.9864 64.5846 50.9864 62.6657C50.9864 61.6885 49.0114 60.0361 48.1121 59.1122C45.5199 56.5182 45.3965 56.8025 41.4642 56.8025V55.0258C44.6735 55.0258 45.4494 55.4522 45.4494 52.3074C45.4594 51.7785 45.3445 51.2548 45.1143 50.7794C44.5324 49.9088 42.7691 50.1575 41.4642 50.1575V47.6346C44.8498 47.6346 45.4494 47.9899 45.4494 44.6319C45.4494 42.3222 43.5802 42.8552 41.4642 42.8552C41.4642 41.3627 41.7639 38.5377 39.0307 38.4666C36.2975 38.3956 36.4915 41.4338 36.4915 42.8552H14.7668V41.2739C14.8006 40.9423 14.7683 40.6072 14.672 40.2883C14.5756 39.9694 14.4171 39.6731 14.2056 39.4167C13.9942 39.1604 13.7341 38.9491 13.4406 38.7953C13.147 38.6415 12.826 38.5483 12.4963 38.5211C12.1665 38.4939 11.8347 38.5333 11.5203 38.6369C11.2058 38.7406 10.9151 38.9064 10.6651 39.1248C10.4151 39.3431 10.2108 39.6095 10.0643 39.9083C9.91773 40.2072 9.83187 40.5325 9.8117 40.8652ZM14.7668 47.5813H36.4915V50.0154H14.7668V47.5813ZM47.0012 23.098C46.922 24.7877 47.1126 26.4794 47.5654 28.1083C41.5347 32.106 44.2327 40.8652 52.5381 40.8652V59.2366C52.5381 61.2621 55.6064 60.8001 57.6519 60.8001C60.2793 60.8001 59.7856 59.1122 59.7856 56.9446V38.7687C61.3872 39.1497 63.0722 38.9153 64.5114 38.1113C65.621 37.4616 66.5568 36.5494 67.2379 35.4535C67.9189 34.3576 68.3248 33.111 68.4203 31.8215C68.5158 30.5321 68.2981 29.2386 67.786 28.0529C67.2739 26.8673 66.4829 25.8252 65.4813 25.0168C64.8493 24.5781 64.1759 24.2032 63.471 23.8975C63.5446 21.0031 62.8572 18.1405 61.4784 15.6002C58.2514 9.95016 52.3794 9.84356 49.1348 15.2981C47.7505 17.6618 47.0142 20.3535 47.0012 23.098V23.098ZM58.0751 9.64812C59.2823 9.97371 60.3753 10.6321 61.2315 11.5492C63.0744 13.3054 64.3936 15.5453 65.0404 18.0165C65.4389 19.466 65.6755 20.9559 65.7458 22.4583C67.227 22.8137 69.1843 25.3544 69.8721 26.9002C70.2953 27.8951 70.2776 28.6769 70.7185 29.05C70.775 28.6358 70.9128 28.2372 71.124 27.8774C72.2123 24.8488 72.8078 21.6629 72.8874 18.4429V15.689C72.8107 13.2106 72.4558 10.749 71.8294 8.35111C70.983 5.47281 68.7611 0.000488281 65.3931 0.000488281C64.2973 0.055859 63.2384 0.417633 62.3352 1.04526C61.432 1.67289 60.7201 2.54157 60.2793 3.55394C59.1877 5.41014 58.4408 7.45115 58.0751 9.57705V9.64812ZM0.148438 1.42187V14.3031C3.5388 14.3296 6.82523 13.125 9.40613 10.9096C11.8564 8.89161 13.5334 6.07747 14.1496 2.94986C14.2597 2.39946 14.3246 1.84087 14.3436 1.27973C14.3436 0.586809 14.7139 0.000488281 14.0614 0.000488281H2.14104C1.06539 0.000488281 0.148438 0.373601 0.148438 1.42187ZM62.6246 41.2028V57.5132C62.6246 60.3559 62.5012 60.8001 65.3226 60.8001C68.1439 60.8001 67.4562 59.3787 67.4562 56.9446V38.9108C67.0683 39.1773 66.8391 39.3905 66.4864 39.6571C65.3156 40.4292 64.0021 40.9549 62.6246 41.2028ZM28.3623 16.3109C28.3623 14.7829 26.2287 13.8767 24.4829 12.9173C23.8658 12.5797 23.4778 12.3132 22.8783 11.9756C20.8185 10.6399 18.6678 9.45251 16.442 8.42218C15.2076 8.42218 14.4141 9.02627 14.3788 10.1989C14.3754 10.633 14.5035 11.0579 14.7461 11.4167C14.9888 11.7755 15.3343 12.0511 15.7366 12.2066L24.3771 17.217C25.2412 17.6967 26.6519 18.8693 27.9039 17.5368C28.17 17.1808 28.3292 16.7553 28.3623 16.3109V16.3109ZM16.1951 28.3215C16.464 28.3594 16.738 28.3342 16.9956 28.2479C17.2533 28.1615 17.4877 28.0164 17.6805 27.8238C17.8734 27.6312 18.0195 27.3964 18.1075 27.1375C18.1954 26.8787 18.2229 26.6029 18.1877 26.3316C16.5966 23.0746 14.8306 19.9073 12.8976 16.8439C12.1393 15.4758 11.7161 14.3031 10.1644 14.3031C9.14162 14.3031 7.76619 15.5113 9.14162 17.7678C9.89987 19.0115 10.517 20.2374 11.2753 21.4811L14.4317 27.0423C14.5784 27.3997 14.8212 27.7088 15.1327 27.9348C15.4442 28.1608 15.8122 28.2947 16.1951 28.3215V28.3215ZM16.4772 2.29247C16.5456 2.754 16.7648 3.17936 17.1002 3.50118C17.4356 3.82301 17.8679 4.0229 18.3288 4.0692H30.1257C30.4789 4.07688 30.827 3.98357 31.1296 3.80009C31.4323 3.6166 31.6772 3.35046 31.8359 3.03249C31.9946 2.71452 32.0607 2.35774 32.0264 2.00351C31.9921 1.64927 31.8589 1.31207 31.6422 1.03099C31.3787 0.745402 31.0437 0.536709 30.6724 0.426903H18.1877C17.112 0.426903 16.4772 1.77722 16.4772 2.29247ZM0.606913 18.4607V30.045C0.591763 30.5141 0.741661 30.9734 1.03012 31.342C1.22565 31.6743 1.52336 31.9333 1.87813 32.0799C2.2329 32.2264 2.62541 32.2524 2.99619 32.154C3.36696 32.0556 3.6958 31.8381 3.93287 31.5345C4.16994 31.2308 4.30234 30.8576 4.30999 30.4714V18.0343C4.27472 15.991 0.571646 15.689 0.571646 18.4607H0.606913ZM14.7139 54.9369H36.4915V56.7136H14.7668L14.7139 54.9369Z" fill="#1B1B1B"/>
</g>
<defs>
<clipPath id="clip0_72_396">
<rect width="72.7037" height="72.7037" fill="white" transform="translate(0.148438)"/>
</clipPath>
</defs>
</svg>
