<svg width="92" height="95" viewBox="0 0 92 95" fill="none" xmlns="http://www.w3.org/2000/svg">
<g clip-path="url(#clip0_72_177)">
<path fill-rule="evenodd" clip-rule="evenodd" d="M45.3946 31.7361C25.6205 32.9898 12.0417 47.1748 11.1799 66.7923C31.2802 65.8869 44.7192 51.0983 45.3946 31.7361ZM46.6058 31.7361C66.4498 32.9898 79.9354 47.1748 80.8205 66.7923C60.6969 65.8869 47.2812 51.0751 46.5825 31.7361H46.6058ZM46.0002 27.4644C48.7283 27.4643 51.395 26.6577 53.663 25.1465C55.931 23.6352 57.6983 21.4874 58.7412 18.9746C59.7841 16.4619 60.0558 13.6973 59.5219 11.0306C58.988 8.36392 57.6724 5.91504 55.7418 3.99385C53.8111 2.07266 51.3521 0.765516 48.6759 0.237829C45.9997 -0.289857 43.2266 -0.0143678 40.7075 1.02944C38.1884 2.07324 36.0366 3.83844 34.5243 6.10166C33.012 8.36489 32.2072 11.0244 32.2118 13.7437C32.2118 15.5475 32.5687 17.3335 33.2619 18.9997C33.9551 20.6659 34.9711 22.1795 36.2518 23.4539C37.5324 24.7283 39.0526 25.7384 40.7254 26.4266C42.3981 27.1148 44.1906 27.4674 46.0002 27.4644V27.4644ZM24.8518 94.7909H67.1486C76.3253 95.232 95.8665 96.2302 91.3248 81.0005C87.3653 67.721 65.7045 80.6291 46.1865 51.8644L46.0002 52.0733L45.8139 51.8644C26.226 80.6291 4.65843 67.721 0.675641 81.0005C-3.86613 96.2302 15.6751 95.1855 24.8518 94.7909V94.7909Z" fill="#231F20"/>
</g>
<defs>
<clipPath id="clip0_72_177">
<rect width="92" height="95" fill="white"/>
</clipPath>
</defs>
</svg>
